<?xml version="1.0" encoding="UTF-8"?>
<svg version="1.1" xmlns="http://www.w3.org/2000/svg" width="630" height="280">
<path d="M0 0 C1.47975815 -0.00639748 1.47975815 -0.00639748 2.9894104 -0.01292419 C4.62708878 -0.01224442 4.62708878 -0.01224442 6.29785156 -0.0115509 C8.01275284 -0.01658882 8.01275284 -0.01658882 9.76229858 -0.02172852 C13.57103544 -0.03128372 17.37972844 -0.03318483 21.18847656 -0.03425598 C23.16735914 -0.03665664 25.14624173 -0.03905898 27.12512398 -0.0417164 C33.36662235 -0.04987701 39.60810629 -0.05229973 45.84960938 -0.05158997 C52.2505392 -0.05099338 58.65138359 -0.06145679 65.05229187 -0.07733363 C70.56676116 -0.09051573 76.08120299 -0.09576922 81.59568787 -0.09513456 C84.87986647 -0.09488204 88.16395379 -0.09854237 91.44812012 -0.10831261 C122.04581916 -0.19071417 150.70942677 1.57594858 174.43847656 23.13371277 C175.08300781 23.68543152 175.72753906 24.23715027 176.39160156 24.80558777 C185.79537318 33.36217275 190.88156115 45.1808226 194.43847656 57.13371277 C194.98761719 58.90488464 194.98761719 58.90488464 195.54785156 60.71183777 C200.89511517 82.81227395 195.96905464 106.96982529 184.43847656 126.13371277 C182.31751142 129.37171955 180.03930737 132.27056641 177.43847656 135.13371277 C176.79652344 135.86718933 176.15457031 136.60066589 175.49316406 137.35636902 C167.50484691 145.94896847 157.13422636 152.40290036 146.43847656 157.13371277 C145.77847656 157.13371277 145.11847656 157.13371277 144.43847656 157.13371277 C156.78697126 183.35887521 169.18622316 207.04363433 189.43847656 228.13371277 C190.24961914 228.97881409 190.24961914 228.97881409 191.07714844 229.84098816 C205.92893419 245.0391773 225.42107839 256.68708613 245.30957031 263.95011902 C253.26377777 266.95901397 253.26377777 266.95901397 255.43847656 269.13371277 C255.56347656 272.13371277 255.56347656 272.13371277 255.43847656 275.13371277 C253.67227753 276.8999118 251.20846312 276.30664472 248.81347656 276.32121277 C227.4573586 276.06697327 206.56969614 270.46339945 187.43847656 261.13371277 C186.43300781 260.68640808 185.42753906 260.23910339 184.39160156 259.77824402 C170.05112097 253.16999553 157.6700336 243.09049165 146.43847656 232.13371277 C145.76042969 231.51754089 145.08238281 230.90136902 144.38378906 230.26652527 C124.45504764 211.66085382 108.2576494 183.4464548 98.43847656 158.13371277 C98.43847656 157.47371277 98.43847656 156.81371277 98.43847656 156.13371277 C97.65601563 155.92875183 96.87355469 155.72379089 96.06738281 155.51261902 C94.54951172 155.10849792 94.54951172 155.10849792 93.00097656 154.69621277 C91.99164063 154.42937683 90.98230469 154.16254089 89.94238281 153.88761902 C87.43847656 153.13371277 87.43847656 153.13371277 86.43847656 152.13371277 C86.25097656 149.19621277 86.25097656 149.19621277 86.43847656 146.13371277 C89.17088466 143.40130467 90.80269515 143.87103516 94.62597656 143.75871277 C112.94570444 142.6359511 130.00845597 135.93587849 142.43847656 122.13371277 C151.46789119 110.3415668 155.83139316 97.27676111 155.68847656 82.50871277 C155.69621094 81.70175964 155.70394531 80.89480652 155.71191406 80.06340027 C155.69561767 75.04411232 155.0455638 70.89120119 153.43847656 66.13371277 C152.92285156 67.06183777 152.40722656 67.98996277 151.87597656 68.94621277 C149.80464898 72.67460241 146.28440112 73.79208806 142.43847656 75.13371277 C140.19882154 75.73608444 137.94776906 76.29728182 135.68847656 76.82121277 C128.4766965 78.58148862 121.85044259 81.34506899 115.13671875 84.49186707 C109.95995778 86.82781693 106.13129873 87.70861907 100.43847656 87.13371277 C98.43847656 85.13371277 98.43847656 85.13371277 98.00878906 82.91886902 C98.61709273 78.97595527 100.82836266 76.54581881 103.31347656 73.57121277 C106.04516406 70.22355652 108.5892663 67.06394766 110.43847656 63.13371277 C109.24960342 63.2364727 109.24960342 63.2364727 108.03671265 63.34130859 C98.77543979 64.14149466 89.51399342 64.9396514 80.25242233 65.73637772 C78.63174408 65.875813 77.01106992 66.01529582 75.39039993 66.15482712 C54.54692651 67.94924391 33.70388504 69.73523769 12.84033203 71.28337097 C12.14656967 71.33590027 11.45280731 71.38842957 10.73802185 71.44255066 C8.95338114 71.57750585 7.16847578 71.70894979 5.38354492 71.8400116 C2.64687456 72.11292998 0.08304502 72.37260314 -2.56152344 73.13371277 C-4.05701758 75.81094568 -4.05701758 75.81094568 -4.99902344 79.13371277 C-7.60401287 86.51857377 -10.10741231 92.9178679 -16.87402344 97.25871277 C-21.40620517 98.33414572 -25.08665759 98.51899019 -29.56152344 97.13371277 C-33.59518666 93.95827576 -36.13239112 90.75389567 -36.96777344 85.65324402 C-37.26550099 77.05636108 -34.51115639 72.37213609 -28.74511719 66.18449402 C-28.14828125 65.54898621 -27.55144531 64.91347839 -26.93652344 64.25871277 C-22.86666655 59.77558123 -21.35473951 54.81931255 -19.56152344 49.13371277 C-17.74930624 44.32149557 -17.74930624 44.32149557 -16.56152344 43.13371277 C-13.31152344 42.69621277 -13.31152344 42.69621277 -9.56152344 43.13371277 C-6.28706331 46.26580506 -4.4620256 48.72700006 -3.56152344 53.13371277 C3.12815003 52.72833573 9.81757136 52.31897483 16.50683594 51.90690613 C18.7802179 51.76732669 21.05365506 51.62864324 23.32714844 51.4908905 C26.60399223 51.29218522 29.88062084 51.09020772 33.15722656 50.88761902 C34.67020325 50.79692894 34.67020325 50.79692894 36.21374512 50.70440674 C41.65832508 50.36433459 47.03372334 49.87658601 52.43847656 49.13371277 C51.77847656 48.47371277 51.11847656 47.81371277 50.43847656 47.13371277 C50.20631804 44.59172383 50.07143842 42.11765803 50.00097656 39.57121277 C49.79100128 30.42290808 49.79100128 30.42290808 46.43847656 22.13371277 C36.12724259 17.58627402 26.75128853 16.79262094 15.56347656 17.13371277 C13.0039648 17.21034486 10.44400148 17.27340797 7.88378906 17.32121277 C6.20567139 17.3734198 6.20567139 17.3734198 4.49365234 17.42668152 C1.02669505 17.09422597 -0.77902519 16.18589488 -3.56152344 14.13371277 C-5.54778619 11.24080756 -5.81204745 8.91253319 -5.74902344 5.44621277 C-5.74257813 4.65859558 -5.73613281 3.87097839 -5.72949219 3.05949402 C-5.40203666 -0.69482163 -3.27373128 0.00636517 0 0 Z M79.43847656 28.13371277 C76.82422321 32.92651059 76.27519423 37.00536772 75.86816406 42.41886902 C75.78550293 43.49144958 75.7028418 44.56403015 75.61767578 45.66911316 C75.55854004 46.48243103 75.4994043 47.2957489 75.43847656 48.13371277 C82.76309021 47.86744102 90.08612641 47.5749735 97.40869141 47.25724792 C99.83165256 47.15845515 102.25268254 47.08135649 104.67675781 47.02043152 C111.06351795 46.75272301 114.92302804 45.59947861 120.33300781 42.23918152 C124.08526164 40.26907422 127.36364841 40.03167243 131.43847656 41.13371277 C135.04031435 43.15745278 138.21460811 45.56160111 141.43847656 48.13371277 C142.42847656 48.79371277 143.41847656 49.45371277 144.43847656 50.13371277 C140.41707711 40.38290013 126.74366063 33.90247349 117.58300781 29.87980652 C106.57699301 25.67299409 89.94502551 20.82480915 79.43847656 28.13371277 Z M65.43847656 48.13371277 C69.43847656 49.13371277 69.43847656 49.13371277 69.43847656 49.13371277 Z " fill="#000000" transform="translate(37.5615234375,1.8662872314453125)"/>
<path d="M0 0 C0.66209473 -0.00095673 1.32418945 -0.00191345 2.00634766 -0.00289917 C3.40852961 -0.00358076 4.8107147 -0.00172792 6.21289062 0.00244141 C8.36595713 0.00779004 10.51881502 0.0024958 12.671875 -0.00390625 C14.03125046 -0.00324546 15.3906258 -0.00196429 16.75 0 C18.61785156 0.00169189 18.61785156 0.00169189 20.5234375 0.00341797 C23.375 0.1328125 23.375 0.1328125 24.375 1.1328125 C24.49891682 3.24886346 24.55299906 5.36902533 24.58032227 7.48852539 C24.59022186 8.15191422 24.60012146 8.81530304 24.61032104 9.49879456 C24.64201737 11.70098245 24.66672534 13.90319195 24.69140625 16.10546875 C24.71196878 17.62862218 24.73296505 19.15176981 24.75437927 20.6749115 C24.80967247 24.69112464 24.85904963 28.70738988 24.90722656 32.72369385 C24.95738882 36.81909849 25.01310236 40.91442711 25.06835938 45.00976562 C25.17602954 53.05071705 25.27745467 61.09173191 25.375 69.1328125 C28.56676092 65.97041668 31.7526081 62.80212491 34.9375 59.6328125 C35.83275391 58.7459375 36.72800781 57.8590625 37.65039062 56.9453125 C41.62290761 52.98734686 45.54087797 49.02771752 49.21484375 44.7890625 C49.76505188 44.15739166 50.31526001 43.52572083 50.88214111 42.87490845 C52.21355555 41.32121057 53.51837866 39.74481568 54.81933594 38.16552734 C58.22934336 35.45328797 61.09148059 35.47698851 65.265625 35.609375 C66.38345367 35.6164296 66.38345367 35.6164296 67.52386475 35.62362671 C69.89186902 35.64489323 72.25759819 35.70149164 74.625 35.7578125 C76.2317498 35.77432686 77.83852345 35.78867306 79.4453125 35.80078125 C91.17904192 35.93685442 91.17904192 35.93685442 92.375 37.1328125 C92.89453125 39.6875 92.89453125 39.6875 92.375 43.1328125 C90.25745112 46.15209273 87.67671016 48.66730669 85.0625 51.2578125 C83.5904503 52.76494597 82.11909939 54.27276227 80.6484375 55.78125 C79.92108398 56.51827148 79.19373047 57.25529297 78.44433594 58.01464844 C75.61938948 60.90625243 72.89613219 63.88264456 70.1875 66.8828125 C67.7472534 69.57284812 65.31519032 72.19043935 62.69921875 74.7109375 C60.65676065 76.83921317 59.47444617 78.43417191 58.375 81.1328125 C58.85066406 81.69484375 59.32632813 82.256875 59.81640625 82.8359375 C65.64066073 89.8293333 71.11459449 97.04986991 76.55371094 104.34448242 C81.43007888 110.88369429 86.36278069 117.37671643 91.33886719 123.84033203 C91.84192383 124.49501465 92.34498047 125.14969727 92.86328125 125.82421875 C93.30196533 126.39342041 93.74064941 126.96262207 94.19262695 127.54907227 C97.05500494 131.38311025 97.68577092 133.36765839 97.375 138.1328125 C94.6635406 140.8442719 85.95172051 139.63506691 82.15771484 139.70263672 C80.56279493 139.73918629 78.96817703 139.7936494 77.37451172 139.86669922 C64.21609304 140.46070314 64.21609304 140.46070314 59.91650391 137.35961914 C58.09372235 135.04226712 56.73277896 132.74603306 55.375 130.1328125 C54.46743935 128.80210447 53.54367819 127.48225292 52.6015625 126.17578125 C51.73204513 124.89220021 50.86487854 123.60702376 50 122.3203125 C45.84135509 116.18498742 41.50772645 110.2403803 36.95703125 104.390625 C35.375 102.1328125 35.375 102.1328125 35.375 100.1328125 C29.89633783 103.58563509 29.89633783 103.58563509 25.375 108.1328125 C24.74964463 111.39830963 24.74964463 111.39830963 24.80078125 115.05078125 C24.78661667 115.70863113 24.77245209 116.36648102 24.75785828 117.04426575 C24.71606089 119.13644959 24.70073328 121.22777042 24.6875 123.3203125 C24.65846367 125.4231666 24.6239805 127.52580162 24.58500671 129.62849426 C24.55224375 131.52846869 24.53420063 133.42867979 24.5168457 135.32885742 C24.375 138.1328125 24.375 138.1328125 23.375 139.1328125 C21.16849344 139.23293651 18.95877614 139.2636243 16.75 139.265625 C16.08790527 139.26658173 15.42581055 139.26753845 14.74365234 139.26852417 C13.34147039 139.26920576 11.9392853 139.26735292 10.53710938 139.26318359 C8.38404287 139.25783496 6.23118498 139.2631292 4.078125 139.26953125 C2.71874954 139.26887046 1.3593742 139.26758929 0 139.265625 C-1.24523437 139.26449707 -2.49046875 139.26336914 -3.7734375 139.26220703 C-6.625 139.1328125 -6.625 139.1328125 -7.625 138.1328125 C-7.72352467 136.36352293 -7.75132089 134.59026785 -7.75198364 132.8182373 C-7.75480347 131.6655687 -7.75762329 130.51290009 -7.76052856 129.32530212 C-7.75850433 128.04941727 -7.7564801 126.77353241 -7.75439453 125.45898438 C-7.75574856 124.11072238 -7.7575285 122.76246075 -7.75970459 121.41419983 C-7.76427873 117.74281222 -7.76248945 114.07145259 -7.7593255 110.40006447 C-7.7568018 106.56614733 -7.75913947 102.73223266 -7.76071167 98.89831543 C-7.76253334 92.45873584 -7.76012713 86.0191677 -7.75537109 79.57958984 C-7.74992848 72.12409087 -7.75169114 64.66861924 -7.7571975 57.21312094 C-7.76172871 50.82332674 -7.76237914 44.4335408 -7.75975883 38.04374552 C-7.7581961 34.22243202 -7.75800217 30.4011314 -7.76129532 26.57981873 C-7.76417416 22.98807425 -7.76219812 19.39636519 -7.75640106 15.80462456 C-7.75443793 13.84985783 -7.75742727 11.89508813 -7.76052856 9.94032288 C-7.75770874 8.78765427 -7.75488892 7.63498566 -7.75198364 6.4473877 C-7.75160662 5.4393232 -7.75122959 4.4312587 -7.75084114 3.39264679 C-7.48774782 -1.33193928 -3.98395508 0.00360865 0 0 Z " fill="#000000" transform="translate(428.625,95.8671875)"/>
<path d="M0 0 C1.47975815 -0.00639748 1.47975815 -0.00639748 2.9894104 -0.01292419 C4.62708878 -0.01224442 4.62708878 -0.01224442 6.29785156 -0.0115509 C8.01275284 -0.01658882 8.01275284 -0.01658882 9.76229858 -0.02172852 C13.57103544 -0.03128372 17.37972844 -0.03318483 21.18847656 -0.03425598 C23.16735914 -0.03665664 25.14624173 -0.03905898 27.12512398 -0.0417164 C33.36662235 -0.04987701 39.60810629 -0.05229973 45.84960938 -0.05158997 C52.2505392 -0.05099338 58.65138359 -0.06145679 65.05229187 -0.07733363 C70.56676116 -0.09051573 76.08120299 -0.09576922 81.59568787 -0.09513456 C84.87986647 -0.09488204 88.16395379 -0.09854237 91.44812012 -0.10831261 C122.04581916 -0.19071417 150.70942677 1.57594858 174.43847656 23.13371277 C175.08300781 23.68543152 175.72753906 24.23715027 176.39160156 24.80558777 C185.79537318 33.36217275 190.88156115 45.1808226 194.43847656 57.13371277 C194.98761719 58.90488464 194.98761719 58.90488464 195.54785156 60.71183777 C200.89511517 82.81227395 195.96905464 106.96982529 184.43847656 126.13371277 C182.31751142 129.37171955 180.03930737 132.27056641 177.43847656 135.13371277 C176.79652344 135.86718933 176.15457031 136.60066589 175.49316406 137.35636902 C167.50484691 145.94896847 157.13422636 152.40290036 146.43847656 157.13371277 C145.77847656 157.13371277 145.11847656 157.13371277 144.43847656 157.13371277 C156.78697126 183.35887521 169.18622316 207.04363433 189.43847656 228.13371277 C190.24961914 228.97881409 190.24961914 228.97881409 191.07714844 229.84098816 C205.92893419 245.0391773 225.42107839 256.68708613 245.30957031 263.95011902 C253.26377777 266.95901397 253.26377777 266.95901397 255.43847656 269.13371277 C255.56347656 272.13371277 255.56347656 272.13371277 255.43847656 275.13371277 C253.67227753 276.8999118 251.20846312 276.30664472 248.81347656 276.32121277 C227.4573586 276.06697327 206.56969614 270.46339945 187.43847656 261.13371277 C186.43300781 260.68640808 185.42753906 260.23910339 184.39160156 259.77824402 C170.05112097 253.16999553 157.6700336 243.09049165 146.43847656 232.13371277 C145.76042969 231.51754089 145.08238281 230.90136902 144.38378906 230.26652527 C124.45504764 211.66085382 108.2576494 183.4464548 98.43847656 158.13371277 C98.43847656 157.47371277 98.43847656 156.81371277 98.43847656 156.13371277 C97.65601563 155.92875183 96.87355469 155.72379089 96.06738281 155.51261902 C94.54951172 155.10849792 94.54951172 155.10849792 93.00097656 154.69621277 C91.99164063 154.42937683 90.98230469 154.16254089 89.94238281 153.88761902 C87.43847656 153.13371277 87.43847656 153.13371277 86.43847656 152.13371277 C86.25097656 149.19621277 86.25097656 149.19621277 86.43847656 146.13371277 C89.17088466 143.40130467 90.80269515 143.87103516 94.62597656 143.75871277 C112.94570444 142.6359511 130.00845597 135.93587849 142.43847656 122.13371277 C151.46789119 110.3415668 155.83139316 97.27676111 155.68847656 82.50871277 C155.69621094 81.70175964 155.70394531 80.89480652 155.71191406 80.06340027 C155.69561767 75.04411232 155.0455638 70.89120119 153.43847656 66.13371277 C152.92285156 67.06183777 152.40722656 67.98996277 151.87597656 68.94621277 C149.80464898 72.67460241 146.28440112 73.79208806 142.43847656 75.13371277 C140.19882154 75.73608444 137.94776906 76.29728182 135.68847656 76.82121277 C128.4766965 78.58148862 121.85044259 81.34506899 115.13671875 84.49186707 C109.95995778 86.82781693 106.13129873 87.70861907 100.43847656 87.13371277 C98.43847656 85.13371277 98.43847656 85.13371277 98.00878906 82.91886902 C98.61709273 78.97595527 100.82836266 76.54581881 103.31347656 73.57121277 C106.04516406 70.22355652 108.5892663 67.06394766 110.43847656 63.13371277 C109.24960342 63.2364727 109.24960342 63.2364727 108.03671265 63.34130859 C98.77543979 64.14149466 89.51399342 64.9396514 80.25242233 65.73637772 C78.63174408 65.875813 77.01106992 66.01529582 75.39039993 66.15482712 C54.54692651 67.94924391 33.70388504 69.73523769 12.84033203 71.28337097 C12.14656967 71.33590027 11.45280731 71.38842957 10.73802185 71.44255066 C8.95338114 71.57750585 7.16847578 71.70894979 5.38354492 71.8400116 C2.64687456 72.11292998 0.08304502 72.37260314 -2.56152344 73.13371277 C-4.05701758 75.81094568 -4.05701758 75.81094568 -4.99902344 79.13371277 C-7.60401287 86.51857377 -10.10741231 92.9178679 -16.87402344 97.25871277 C-21.40620517 98.33414572 -25.08665759 98.51899019 -29.56152344 97.13371277 C-33.59518666 93.95827576 -36.13239112 90.75389567 -36.96777344 85.65324402 C-37.26550099 77.05636108 -34.51115639 72.37213609 -28.74511719 66.18449402 C-28.14828125 65.54898621 -27.55144531 64.91347839 -26.93652344 64.25871277 C-22.86666655 59.77558123 -21.35473951 54.81931255 -19.56152344 49.13371277 C-17.74930624 44.32149557 -17.74930624 44.32149557 -16.56152344 43.13371277 C-13.31152344 42.69621277 -13.31152344 42.69621277 -9.56152344 43.13371277 C-6.28706331 46.26580506 -4.4620256 48.72700006 -3.56152344 53.13371277 C3.12815003 52.72833573 9.81757136 52.31897483 16.50683594 51.90690613 C18.7802179 51.76732669 21.05365506 51.62864324 23.32714844 51.4908905 C26.60399223 51.29218522 29.88062084 51.09020772 33.15722656 50.88761902 C34.67020325 50.79692894 34.67020325 50.79692894 36.21374512 50.70440674 C41.65832508 50.36433459 47.03372334 49.87658601 52.43847656 49.13371277 C51.77847656 48.47371277 51.11847656 47.81371277 50.43847656 47.13371277 C50.20631804 44.59172383 50.07143842 42.11765803 50.00097656 39.57121277 C49.79100128 30.42290808 49.79100128 30.42290808 46.43847656 22.13371277 C36.12724259 17.58627402 26.75128853 16.79262094 15.56347656 17.13371277 C13.0039648 17.21034486 10.44400148 17.27340797 7.88378906 17.32121277 C6.20567139 17.3734198 6.20567139 17.3734198 4.49365234 17.42668152 C1.02669505 17.09422597 -0.77902519 16.18589488 -3.56152344 14.13371277 C-5.54778619 11.24080756 -5.81204745 8.91253319 -5.74902344 5.44621277 C-5.74257813 4.65859558 -5.73613281 3.87097839 -5.72949219 3.05949402 C-5.40203666 -0.69482163 -3.27373128 0.00636517 0 0 Z M-2.56152344 3.13371277 C-2.14405271 7.7935985 -2.14405271 7.7935985 -0.37402344 12.00871277 C4.48620434 15.02540587 10.70312488 14.14497907 16.19726562 14.01725769 C39.24847022 13.52155118 39.24847022 13.52155118 48.62597656 20.50871277 C52.30396837 25.83545953 52.76715625 31.17868786 53.00097656 37.44621277 C52.77876198 42.16801587 52.77876198 42.16801587 54.43847656 46.13371277 C60.85067806 46.33727472 67.07218696 45.87799715 73.43847656 45.13371277 C73.62023437 43.57910339 73.62023437 43.57910339 73.80566406 41.99308777 C73.97454837 40.62324839 74.14384067 39.25345927 74.31347656 37.88371277 C74.39210938 37.20179871 74.47074219 36.51988464 74.55175781 35.81730652 C75.46343017 28.59405627 75.46343017 28.59405627 77.43847656 26.13371277 C82.39947519 23.40237644 86.70727533 22.61215847 92.37597656 22.69621277 C93.47969604 22.70866028 93.47969604 22.70866028 94.60571289 22.72135925 C114.32759978 23.31324756 132.92576284 32.29265071 146.62988281 46.38761902 C156.14621199 57.87709636 160.11990524 72.30656827 159.19238281 87.04386902 C157.38041403 105.53438874 150.51994017 121.08537572 136.02441406 133.14152527 C122.19666692 143.28187318 107.32614016 146.39946653 90.43847656 147.13371277 C90.10847656 148.12371277 89.77847656 149.11371277 89.43847656 150.13371277 C90.05335937 150.31547058 90.66824219 150.49722839 91.30175781 150.68449402 C92.11 150.93586121 92.91824219 151.18722839 93.75097656 151.44621277 C94.55148438 151.68984558 95.35199219 151.93347839 96.17675781 152.18449402 C100.13690613 153.84652518 101.76280815 156.40841563 103.46191406 160.24699402 C103.83638672 161.07191345 104.21085937 161.89683289 104.59667969 162.74674988 C104.99822266 163.63757263 105.39976562 164.52839539 105.81347656 165.44621277 C117.39854338 190.40751585 133.15314376 217.02948464 154.43847656 235.13371277 C155.09847656 235.13371277 155.75847656 235.13371277 156.43847656 235.13371277 C156.43847656 235.79371277 156.43847656 236.45371277 156.43847656 237.13371277 C158.63077392 238.93485333 160.82319738 240.60881067 163.12597656 242.25871277 C163.80861572 242.75081238 164.49125488 243.24291199 165.19458008 243.74992371 C190.56079471 261.85224379 220.95858681 273.64145293 252.43847656 273.13371277 C251.80003835 270.08762746 251.80003835 270.08762746 249.7746582 269.217453 C249.05656982 268.96165466 248.33848145 268.70585632 247.59863281 268.44230652 C246.79200195 268.14292175 245.98537109 267.84353699 245.15429688 267.53507996 C244.27870117 267.21700378 243.40310547 266.89892761 242.50097656 266.57121277 C221.58070499 258.54915374 203.62412948 246.60445169 187.43847656 231.13371277 C186.375 230.1649823 186.375 230.1649823 185.29003906 229.17668152 C168.60166343 213.42213196 157.70396332 193.17397552 147.81347656 172.75871277 C147.29197021 171.68234558 146.77046387 170.60597839 146.2331543 169.49699402 C145.75177002 168.48250183 145.27038574 167.46800964 144.77441406 166.42277527 C144.34692871 165.52252625 143.91944336 164.62227722 143.47900391 163.69474792 C142.45326747 161.17011743 141.87638142 158.81731455 141.43847656 156.13371277 C141.93138184 155.87267761 142.42428711 155.61164246 142.93212891 155.34269714 C152.37797926 150.30784949 161.48857978 145.4026128 169.43847656 138.13371277 C170.14101562 137.51109558 170.84355469 136.88847839 171.56738281 136.24699402 C185.55660879 123.16029875 192.8608283 104.12018542 193.82519531 85.23136902 C194.41860148 64.46051397 189.98786999 44.79352957 175.43847656 29.13371277 C158.00716372 11.2880264 135.20391707 3.82003882 110.5848484 3.04372978 C107.56985296 3.01196189 104.5564037 3.00981528 101.54125977 3.02018738 C100.40823929 3.02004135 99.27521881 3.01989532 98.10786438 3.01974487 C94.401642 3.02043575 90.6954713 3.02818914 86.98925781 3.03605652 C84.40423103 3.03792363 81.8192039 3.03934615 79.23417664 3.04034424 C73.15007017 3.0437587 67.06598469 3.05162208 60.98188609 3.06169373 C54.04827091 3.07291946 47.1146548 3.07838151 40.18103278 3.08338916 C25.9335043 3.09380671 11.68599108 3.11136564 -2.56152344 3.13371277 Z M79.43847656 28.13371277 C76.82422321 32.92651059 76.27519423 37.00536772 75.86816406 42.41886902 C75.78550293 43.49144958 75.7028418 44.56403015 75.61767578 45.66911316 C75.55854004 46.48243103 75.4994043 47.2957489 75.43847656 48.13371277 C82.76309021 47.86744102 90.08612641 47.5749735 97.40869141 47.25724792 C99.83165256 47.15845515 102.25268254 47.08135649 104.67675781 47.02043152 C111.06351795 46.75272301 114.92302804 45.59947861 120.33300781 42.23918152 C124.08526164 40.26907422 127.36364841 40.03167243 131.43847656 41.13371277 C135.04031435 43.15745278 138.21460811 45.56160111 141.43847656 48.13371277 C142.42847656 48.79371277 143.41847656 49.45371277 144.43847656 50.13371277 C140.41707711 40.38290013 126.74366063 33.90247349 117.58300781 29.87980652 C106.57699301 25.67299409 89.94502551 20.82480915 79.43847656 28.13371277 Z M65.43847656 48.13371277 C69.43847656 49.13371277 69.43847656 49.13371277 69.43847656 49.13371277 Z " fill="#FFFFFF" transform="translate(37.5615234375,1.8662872314453125)"/>
<path d="M0 0 C4.25414623 -0.02465622 8.50825498 -0.04283899 12.76245117 -0.05493164 C14.21070073 -0.05997101 15.65894517 -0.06680253 17.10717773 -0.07543945 C19.18474588 -0.08752247 21.26224697 -0.09323211 23.33984375 -0.09765625 C24.59144287 -0.10289307 25.84304199 -0.10812988 27.13256836 -0.11352539 C30 0 30 0 31 1 C31.10774917 2.84909065 31.14627044 4.70225138 31.15771484 6.55444336 C31.16797699 7.74335678 31.17823914 8.9322702 31.18881226 10.1572113 C31.19611359 11.45498001 31.20341492 12.75274872 31.2109375 14.08984375 C31.22390254 15.43210167 31.23771877 16.77435161 31.25234985 18.11659241 C31.31392017 23.82382883 31.36773647 29.53105083 31.40136719 35.23852539 C31.42248387 38.72823802 31.45793499 42.2175704 31.50212479 45.70706367 C31.52294785 47.66871608 31.52830751 49.63051332 31.53329468 51.5922699 C31.62991694 58.69195057 31.984302 65.45646231 35 72 C37.0808854 73.78348677 37.0808854 73.78348677 40 74 C41.02867187 74.20882812 41.02867187 74.20882812 42.078125 74.421875 C47.55155863 75.35273106 51.07176624 74.84321179 56 72 C60.50306977 68.41801268 62.63481195 64.51700273 64 59 C64.4305907 54.60558187 64.44098007 50.23332272 64.44140625 45.8203125 C64.45461411 44.57120087 64.46782196 43.32208923 64.48143005 42.03512573 C64.51527124 38.73813002 64.53775346 35.44135257 64.55297852 32.14422607 C64.57497437 27.47955304 64.60753548 22.81509751 64.65428162 18.15060425 C64.67871227 15.67112877 64.69351077 13.19153654 64.69789124 10.71194458 C64.70807785 9.59673431 64.71826447 8.48152405 64.72875977 7.33251953 C64.73303482 6.34849152 64.73730988 5.3644635 64.74171448 4.35061646 C65 2 65 2 67 0 C69.96508789 -0.24291992 69.96508789 -0.24291992 73.72265625 -0.23046875 C74.38333603 -0.23001053 75.04401581 -0.22955231 75.72471619 -0.2290802 C77.12093909 -0.22605921 78.51715867 -0.21817742 79.91333008 -0.20581055 C82.05757498 -0.18754196 84.20138849 -0.18530094 86.34570312 -0.18554688 C96.85256788 -0.14743212 96.85256788 -0.14743212 98 1 C98.10068417 4.13023484 98.1361416 7.2384492 98.12939453 10.36914062 C98.13202301 11.84461617 98.13202301 11.84461617 98.13470459 13.34989929 C98.13912505 16.61870053 98.13618443 19.88744816 98.1328125 23.15625 C98.13348548 25.41687022 98.13445546 27.67749038 98.13571167 29.93811035 C98.13718891 34.68286832 98.13503326 39.42760749 98.13037109 44.17236328 C98.1246738 50.26938624 98.12795266 56.36636519 98.13394356 62.46338654 C98.13754848 67.13348729 98.1364109 71.80357753 98.13381577 76.47367859 C98.1331463 78.72246811 98.13397558 80.97125857 98.13629532 83.220047 C98.13882071 86.35701038 98.13498285 89.49390141 98.12939453 92.63085938 C98.13141876 93.57011765 98.13344299 94.50937592 98.13552856 95.47709656 C98.11426225 101.88573775 98.11426225 101.88573775 97 103 C92.35984675 103.2541555 87.70878694 103.18522798 83.0625 103.1875 C81.74830078 103.19974609 80.43410156 103.21199219 79.08007812 103.22460938 C77.82775391 103.22654297 76.57542969 103.22847656 75.28515625 103.23046875 C73.55084351 103.23663208 73.55084351 103.23663208 71.78149414 103.24291992 C69 103 69 103 67 101 C66.875 98.375 66.875 98.375 67 96 C66.38253906 96.39832031 65.76507812 96.79664063 65.12890625 97.20703125 C64.28199219 97.73683594 63.43507813 98.26664062 62.5625 98.8125 C61.73878906 99.33457031 60.91507813 99.85664063 60.06640625 100.39453125 C53.03666672 104.07507004 46.53411027 105.53787147 38.625 105.4375 C37.79718018 105.43137695 36.96936035 105.42525391 36.11645508 105.41894531 C24.67543533 105.12791066 15.80705535 101.15635687 7.875 92.875 C-1.68763208 81.72467901 -2.30995056 67.74909967 -2.265625 53.671875 C-2.26697577 52.31048514 -2.26891972 50.94909575 -2.27142334 49.58770752 C-2.27435124 46.75373682 -2.27015028 43.91989328 -2.26074219 41.0859375 C-2.24930504 37.46587476 -2.25594863 33.84610728 -2.26788712 30.22605515 C-2.27513193 27.42240188 -2.27280654 24.61881808 -2.26763153 21.81516266 C-2.26566339 19.83549302 -2.27169863 17.8558206 -2.27789307 15.87615967 C-2.27158875 14.66760315 -2.26528442 13.45904663 -2.25878906 12.21386719 C-2.25719788 11.15592957 -2.25560669 10.09799194 -2.25396729 9.00799561 C-1.97860179 5.746559 -1.1504336 3.05390554 0 0 Z " fill="#000000" transform="translate(530,132)"/>
<path d="M0 0 C0.92490234 -0.01998047 1.84980469 -0.03996094 2.80273438 -0.06054688 C12.97028912 -0.05342175 21.61336651 3.50209985 29.0625 10.4375 C36.59116295 18.52384169 40.1849358 28.46524417 40.19189453 39.39331055 C40.19452301 40.43053253 40.19452301 40.43053253 40.19720459 41.4887085 C40.20159515 43.76723766 40.19869594 46.04568884 40.1953125 48.32421875 C40.19598611 49.90794388 40.19695662 51.4916689 40.19821167 53.07539368 C40.19968466 56.3898721 40.19754603 59.70432354 40.19287109 63.01879883 C40.18716005 67.27617623 40.190464 71.53349078 40.19644356 75.7908659 C40.20004803 79.05840025 40.19891136 82.32591957 40.19631577 85.59345436 C40.1956469 87.16400981 40.19647351 88.7345666 40.19879532 90.30512047 C40.20132149 92.49340846 40.19748245 94.68159282 40.19189453 96.86987305 C40.19109894 98.11689499 40.19030334 99.36391693 40.18948364 100.64872742 C40.0625 103.4375 40.0625 103.4375 39.0625 104.4375 C34.80501574 104.65559756 30.54204276 104.62329161 26.27954102 104.62280273 C24.13733 104.62498743 21.99563529 104.64313512 19.85351562 104.66210938 C18.4973976 104.66504359 17.14127712 104.6670282 15.78515625 104.66796875 C14.54515869 104.67207764 13.30516113 104.67618652 12.02758789 104.68041992 C9.0625 104.4375 9.0625 104.4375 7.0625 102.4375 C6.83544922 100.25219727 6.83544922 100.25219727 6.8671875 97.50390625 C6.87379395 96.47523438 6.88040039 95.4465625 6.88720703 94.38671875 C6.90380371 93.26910156 6.92040039 92.15148437 6.9375 91 C6.94507324 89.85015625 6.95264648 88.7003125 6.96044922 87.515625 C6.99316472 82.58559861 7.04903524 77.6559008 7.10351562 72.72607422 C7.1399035 69.12989869 7.16397037 65.53377912 7.1875 61.9375 C7.20409668 60.83607666 7.22069336 59.73465332 7.23779297 58.59985352 C7.29101397 50.10980579 6.59261778 41.28220617 3.0625 33.4375 C1.19502737 32.04511953 1.19502737 32.04511953 -0.9375 31.4375 C-1.9275 31.1075 -2.9175 30.7775 -3.9375 30.4375 C-10.1938439 29.6596242 -15.03423688 30.11291342 -20.24609375 33.80859375 C-24.6395023 38.03965926 -26.73912361 44.03243157 -27.08898926 50.0377655 C-27.10778137 51.5121685 -27.10778137 51.5121685 -27.12695312 53.01635742 C-27.15202942 54.69280586 -27.15202942 54.69280586 -27.1776123 56.40312195 C-27.19118774 57.60427139 -27.20476318 58.80542084 -27.21875 60.04296875 C-27.23715942 61.2779158 -27.25556885 62.51286285 -27.27453613 63.78523254 C-27.34331468 68.40425627 -27.40389249 73.02336949 -27.46356201 77.64251709 C-27.52246392 82.17192257 -27.58857446 86.70118719 -27.65625 91.23046875 C-27.66982544 92.43769089 -27.68340088 93.64491302 -27.6973877 94.88871765 C-27.72246399 96.55098137 -27.72246399 96.55098137 -27.74804688 98.24682617 C-27.76683899 99.717649 -27.76683899 99.717649 -27.78601074 101.21818542 C-27.9375 103.4375 -27.9375 103.4375 -28.9375 104.4375 C-31.14400656 104.53762401 -33.35372386 104.5683118 -35.5625 104.5703125 C-36.22459473 104.57126923 -36.88668945 104.57222595 -37.56884766 104.57321167 C-38.97102961 104.57389326 -40.3732147 104.57204042 -41.77539062 104.56787109 C-43.92845713 104.56252246 -46.08131502 104.5678167 -48.234375 104.57421875 C-49.59375046 104.57355796 -50.9531258 104.57227679 -52.3125 104.5703125 C-53.55773437 104.56918457 -54.80296875 104.56805664 -56.0859375 104.56689453 C-58.9375 104.4375 -58.9375 104.4375 -59.9375 103.4375 C-60.04350402 100.34315762 -60.08427455 97.27101169 -60.08276367 94.17602539 C-60.08612228 93.20373489 -60.0894809 92.2314444 -60.09294128 91.22969055 C-60.10248262 87.99816632 -60.10439597 84.76669371 -60.10546875 81.53515625 C-60.10867907 79.29935179 -60.11204296 77.06354754 -60.11555481 74.82774353 C-60.12155402 70.13426221 -60.12339389 65.44079934 -60.12280273 60.74731445 C-60.12270105 54.71985892 -60.13635576 48.69252104 -60.15357494 42.66509342 C-60.16466883 38.04556226 -60.16672275 33.42605977 -60.16619301 28.80651665 C-60.16737698 26.58366935 -60.17182192 24.3608214 -60.17952538 22.13798714 C-60.18927292 19.03469623 -60.18646804 15.9316638 -60.18041992 12.82836914 C-60.18603943 11.90205688 -60.19165894 10.97574463 -60.19744873 10.0213623 C-60.19325424 9.17864273 -60.18905975 8.33592316 -60.18473816 7.46766663 C-60.18555531 6.36622865 -60.18555531 6.36622865 -60.18638897 5.24253941 C-59.9375 3.4375 -59.9375 3.4375 -57.9375 1.4375 C-55.35546875 1.17871094 -55.35546875 1.17871094 -52.125 1.171875 C-50.96742188 1.16929687 -49.80984375 1.16671875 -48.6171875 1.1640625 C-47.40289062 1.17179688 -46.18859375 1.17953125 -44.9375 1.1875 C-43.72320312 1.17976562 -42.50890625 1.17203125 -41.2578125 1.1640625 C-39.52144531 1.16792969 -39.52144531 1.16792969 -37.75 1.171875 C-36.68394531 1.17413086 -35.61789062 1.17638672 -34.51953125 1.17871094 C-31.9375 1.4375 -31.9375 1.4375 -29.9375 3.4375 C-29.53985737 5.42571313 -29.19974651 7.42694339 -28.9375 9.4375 C-28.39222656 9.03917969 -27.84695313 8.64085937 -27.28515625 8.23046875 C-26.53105469 7.70066406 -25.77695312 7.17085937 -25 6.625 C-24.26910156 6.10292969 -23.53820312 5.58085937 -22.78515625 5.04296875 C-15.38305486 0.86976755 -8.40743881 -0.06417892 0 0 Z " fill="#000000" transform="translate(360.9375,130.5625)"/>
<path d="M0 0 C7.28836468 2.41524755 13.76887986 7.65331978 18 14 C18.67681327 21.10653931 18.67681327 21.10653931 16.42578125 24.078125 C13.44464908 26.43998816 10.36669958 27.60401168 6.8125 28.8125 C5.38461102 29.32458198 3.95755463 29.83899028 2.53125 30.35546875 C1.79132813 30.62149902 1.05140625 30.8875293 0.2890625 31.16162109 C-3.56719423 32.57399157 -7.38033906 34.08591724 -11.1875 35.625 C-11.89350342 35.90190674 -12.59950684 36.17881348 -13.3269043 36.46411133 C-13.99633057 36.73634521 -14.66575684 37.0085791 -15.35546875 37.2890625 C-15.93965576 37.52318848 -16.52384277 37.75731445 -17.12573242 37.99853516 C-19.80545669 39.43037428 -21.80687915 40.87312743 -24 43 C-24.73297212 46.07134516 -24.73297212 46.07134516 -24.59594727 49.5534668 C-24.6000058 50.20283707 -24.60406433 50.85220734 -24.60824585 51.52125549 C-24.61375502 52.92788904 -24.60777681 54.33460448 -24.59158516 55.74115562 C-24.56611158 57.97505953 -24.57098023 60.20712249 -24.58348083 62.44111633 C-24.60422402 67.19011343 -24.58458204 71.9385406 -24.5625 76.6875 C-24.5413306 82.17636387 -24.53699405 87.66463031 -24.56300163 93.15348244 C-24.56633682 95.34117497 -24.54522386 97.52770045 -24.52259827 99.71525574 C-24.50729725 107.28897877 -25.0283778 113.41394651 -29 120 C-29.46921875 120.79792969 -29.9384375 121.59585938 -30.421875 122.41796875 C-35.39949573 129.04991637 -41.66264839 134.9056945 -50.05859375 136.35546875 C-53.39979901 136.65409249 -55.9271412 136.67456573 -58.8203125 134.85546875 C-61.56726947 132.22988895 -63.75212403 129.35111607 -65.94140625 126.25 C-71.22706554 118.7741504 -76.72636899 113.60008895 -84.05859375 108.1796875 C-87 106 -87 106 -89 104 C-89.1875 100.4375 -89.1875 100.4375 -89 97 C-88 96 -88 96 -84.25 95.625 C-78.83793653 95.65073089 -74.56364618 97.57667999 -69.69921875 99.80859375 C-64.52960019 101.47357122 -59.40054854 101.7092564 -54 102 C-51.69349074 85.65609173 -50.70537657 69.61277982 -50.75 53.125 C-50.75104736 52.2674411 -50.75209473 51.4098822 -50.75317383 50.52633667 C-50.75954982 48.061692 -50.77549276 45.59736933 -50.796875 43.1328125 C-50.80343109 42.03280159 -50.80343109 42.03280159 -50.81011963 40.91056824 C-50.86593534 36.8455313 -51.21967948 32.98995552 -52 29 C-52.95084473 29.21934204 -52.95084473 29.21934204 -53.92089844 29.44311523 C-84.10305311 36.3527785 -84.10305311 36.3527785 -89.6015625 33.78515625 C-92.17120979 31.87256861 -93.55735551 30.14127685 -95.25 27.4375 C-95.75015625 26.65246094 -96.2503125 25.86742188 -96.765625 25.05859375 C-98.92513609 21.45713063 -99.2649689 19.23950238 -99 15 C-97 13 -97 13 -95.14794922 12.76049805 C-94.37467285 12.76090088 -93.60139648 12.76130371 -92.8046875 12.76171875 C-91.88413574 12.74890869 -90.96358398 12.73609863 -90.01513672 12.72290039 C-88.46076904 12.7053772 -88.46076904 12.7053772 -86.875 12.6875 C-73.13870163 12.35476239 -59.53457063 10.99088912 -45.875 9.5625 C-44.80699158 9.45304047 -43.73898315 9.34358093 -42.63861084 9.23080444 C-39.54732022 8.91242552 -36.45714027 8.58499518 -33.3671875 8.25390625 C-31.97777954 8.11008011 -31.97777954 8.11008011 -30.56030273 7.96334839 C-20.29908094 7.0925222 -20.29908094 7.0925222 -11.5 2.375 C-7.83341161 -0.42690542 -4.50085424 -0.91572082 0 0 Z M-35 26 C-33.68 27.32 -32.36 28.64 -31 30 C-29.68 28.35 -28.36 26.7 -27 25 C-30.40254489 23.7848054 -31.93251126 24.13759612 -35 26 Z " fill="#B50000" transform="translate(138,97)"/>
<path d="M0 0 C0.66209473 -0.00095673 1.32418945 -0.00191345 2.00634766 -0.00289917 C3.40852961 -0.00358076 4.8107147 -0.00172792 6.21289062 0.00244141 C8.36595713 0.00779004 10.51881502 0.0024958 12.671875 -0.00390625 C14.03125046 -0.00324546 15.3906258 -0.00196429 16.75 0 C18.61785156 0.00169189 18.61785156 0.00169189 20.5234375 0.00341797 C23.375 0.1328125 23.375 0.1328125 24.375 1.1328125 C24.51104947 4.19590261 24.58238733 7.23768478 24.61206055 10.30249023 C24.62517273 11.26502716 24.63828491 12.22756409 24.65179443 13.2192688 C24.69375917 16.4182733 24.72816305 19.61730317 24.76171875 22.81640625 C24.7873566 25.02979192 24.81314065 27.2431759 24.83906555 29.45655823 C24.89211979 34.10292499 24.94103584 38.74931534 24.98754883 43.39575195 C25.04794714 49.3627795 25.12215389 55.32954746 25.19992352 61.29637051 C25.25740111 65.86950835 25.30575736 70.44270906 25.351511 75.01597786 C25.37498568 77.21652999 25.40175936 79.4170494 25.43182945 81.61752129 C25.47280112 84.689585 25.50109627 87.76151107 25.52612305 90.83374023 C25.54109329 91.75070175 25.55606354 92.66766327 25.57148743 93.6124115 C25.58248502 95.7868373 25.48883021 97.96134038 25.375 100.1328125 C23.375 102.1328125 23.375 102.1328125 20.40991211 102.37573242 C19.16991455 102.37162354 17.92991699 102.36751465 16.65234375 102.36328125 C15.99166397 102.36282303 15.33098419 102.36236481 14.65028381 102.3618927 C13.25406091 102.35887171 11.85784133 102.35098992 10.46166992 102.33862305 C8.31742502 102.32035446 6.17361151 102.31811344 4.02929688 102.31835938 C-6.47756788 102.28024462 -6.47756788 102.28024462 -7.625 101.1328125 C-7.72567034 98.03310486 -7.761143 94.95563579 -7.75439453 91.85546875 C-7.75614685 90.88157196 -7.75789917 89.90767517 -7.75970459 88.90426636 C-7.76412499 85.66793056 -7.76118445 82.4316489 -7.7578125 79.1953125 C-7.75848549 76.95711252 -7.75945546 74.71891262 -7.76071167 72.48071289 C-7.7621889 67.78303331 -7.76003329 63.0853727 -7.75537109 58.38769531 C-7.7496738 52.35120636 -7.75295267 46.31476186 -7.75894356 40.27827454 C-7.7625485 35.65449689 -7.76141089 31.03072986 -7.75881577 26.4069519 C-7.75814631 24.18049108 -7.75897556 21.9540293 -7.76129532 19.72756958 C-7.76382074 16.62173895 -7.7599828 13.5159814 -7.75439453 10.41015625 C-7.75641876 9.48024872 -7.75844299 8.55034119 -7.76052856 7.59225464 C-7.73504226 -0.0120406 -7.49122931 0.00678553 0 0 Z " fill="#000000" transform="translate(256.625,132.8671875)"/>
<path d="M0 0 C5.00720387 1.7882871 8.50392985 4.81070153 12.5 8.25 C13.17933594 8.7965625 13.85867187 9.343125 14.55859375 9.90625 C17.70091967 12.46714763 19.99090181 14.3925978 21.5 18.25 C21.28291598 24.43689445 21.28291598 24.43689445 18.98046875 26.828125 C15.468541 28.84126154 11.86213719 29.54290775 7.9375 30.4375 C-0.21114274 32.40299381 -7.68115249 35.18996997 -15.26782227 38.74682617 C-22.12892711 41.86956087 -22.12892711 41.86956087 -26.5 40.25 C-24.6425241 37.42663663 -22.78031109 34.6322424 -20.78125 31.90625 C-17.0698947 26.8109995 -14.39518148 22.26998824 -12.5 16.25 C-13.38807343 16.37180634 -14.27614685 16.49361267 -15.19113159 16.61911011 C-27.2677426 18.20808024 -39.36767736 19.22765015 -51.5078125 20.1953125 C-53.69019458 20.37157836 -55.87255712 20.54808631 -58.05490112 20.724823 C-62.59469386 21.09171428 -67.13467044 21.4562075 -71.67480469 21.81884766 C-77.48761072 22.28326629 -83.29997226 22.75300325 -89.11221504 23.22441292 C-93.60390654 23.58826629 -98.09578805 23.9497266 -102.58773422 24.31042099 C-104.73196485 24.48281197 -106.87614335 24.65585271 -109.02026749 24.82956314 C-112.00828158 25.07120404 -114.99652939 25.30971434 -117.98486328 25.54736328 C-118.86387802 25.6190271 -119.74289276 25.69069092 -120.64854431 25.76452637 C-124.94599006 26.10292625 -129.18468916 26.32878671 -133.5 26.25 C-133.73783203 27.28447266 -133.73783203 27.28447266 -133.98046875 28.33984375 C-136.15488059 37.09755773 -139.15385178 45.5164209 -146.5 51.25 C-150.21468412 52.51457332 -151.95915458 52.43028181 -155.6875 51.1875 C-159.11612206 48.82556036 -160.14288485 47.17055488 -161.5 43.25 C-162.31192497 38.46866406 -161.48845578 35.78216916 -158.9375 31.8125 C-156.77334915 28.77859585 -154.43417947 26.07789149 -151.875 23.375 C-147.80514311 18.89186846 -146.29321607 13.93559978 -144.5 8.25 C-143.84727481 6.57782416 -143.18466964 4.90935219 -142.5 3.25 C-140.63859558 3.49835205 -140.63859558 3.49835205 -138.5 4.25 C-137.31513977 6.07733154 -137.31513977 6.07733154 -136.2824707 8.27636719 C-134.57031644 11.29739578 -134.57031644 11.29739578 -131.65512085 12.9263916 C-129.38537667 13.08936851 -127.24909834 13.00832168 -124.98046875 12.828125 C-124.14557419 12.79398499 -123.31067963 12.75984497 -122.45048523 12.72467041 C-119.79659265 12.60594571 -117.15035047 12.4302553 -114.5 12.25 C-112.84732095 12.1643142 -111.19448599 12.08157931 -109.54150391 12.00195312 C-104.29377961 11.73173538 -99.05394705 11.37072377 -93.8125 11 C-91.85589144 10.86419294 -89.89926661 10.72862004 -87.94262695 10.59326172 C-84.82141645 10.37705172 -81.70027812 10.16000729 -78.57933044 9.94003296 C-71.46279471 9.44175314 -64.34448566 8.99189852 -57.22315979 8.56774902 C-52.12517523 8.26127079 -47.02842415 7.93669637 -41.93173218 7.60949707 C-39.45060413 7.4541068 -36.96899877 7.30614597 -34.48696899 7.16589355 C-30.99359476 6.96697795 -27.50299168 6.74039027 -24.01171875 6.5078125 C-22.9792099 6.45563568 -21.94670105 6.40345886 -20.88290405 6.34970093 C-14.77956062 5.91014506 -10.55593873 4.67726234 -5.40583801 1.32394409 C-3.5 0.25 -3.5 0.25 0 0 Z " fill="#FE0000" transform="translate(165.5,44.75)"/>
<path d="M0 0 C0.66209473 -0.00095673 1.32418945 -0.00191345 2.00634766 -0.00289917 C3.40852961 -0.00358076 4.8107147 -0.00172792 6.21289062 0.00244141 C8.36595713 0.00779004 10.51881502 0.0024958 12.671875 -0.00390625 C14.03125046 -0.00324546 15.3906258 -0.00196429 16.75 0 C18.61785156 0.00169189 18.61785156 0.00169189 20.5234375 0.00341797 C23.375 0.1328125 23.375 0.1328125 24.375 1.1328125 C24.49891682 3.24886346 24.55299906 5.36902533 24.58032227 7.48852539 C24.59022186 8.15191422 24.60012146 8.81530304 24.61032104 9.49879456 C24.64201737 11.70098245 24.66672534 13.90319195 24.69140625 16.10546875 C24.71196878 17.62862218 24.73296505 19.15176981 24.75437927 20.6749115 C24.80967247 24.69112464 24.85904963 28.70738988 24.90722656 32.72369385 C24.95738882 36.81909849 25.01310236 40.91442711 25.06835938 45.00976562 C25.17602954 53.05071705 25.27745467 61.09173191 25.375 69.1328125 C28.56676092 65.97041668 31.7526081 62.80212491 34.9375 59.6328125 C35.83275391 58.7459375 36.72800781 57.8590625 37.65039062 56.9453125 C41.62290761 52.98734686 45.54087797 49.02771752 49.21484375 44.7890625 C49.76505188 44.15739166 50.31526001 43.52572083 50.88214111 42.87490845 C52.21355555 41.32121057 53.51837866 39.74481568 54.81933594 38.16552734 C58.22934336 35.45328797 61.09148059 35.47698851 65.265625 35.609375 C66.38345367 35.6164296 66.38345367 35.6164296 67.52386475 35.62362671 C69.89186902 35.64489323 72.25759819 35.70149164 74.625 35.7578125 C76.2317498 35.77432686 77.83852345 35.78867306 79.4453125 35.80078125 C91.17904192 35.93685442 91.17904192 35.93685442 92.375 37.1328125 C92.89453125 39.6875 92.89453125 39.6875 92.375 43.1328125 C90.25745112 46.15209273 87.67671016 48.66730669 85.0625 51.2578125 C83.5904503 52.76494597 82.11909939 54.27276227 80.6484375 55.78125 C79.92108398 56.51827148 79.19373047 57.25529297 78.44433594 58.01464844 C75.61938948 60.90625243 72.89613219 63.88264456 70.1875 66.8828125 C67.7472534 69.57284812 65.31519032 72.19043935 62.69921875 74.7109375 C60.65676065 76.83921317 59.47444617 78.43417191 58.375 81.1328125 C58.85066406 81.69484375 59.32632813 82.256875 59.81640625 82.8359375 C65.64066073 89.8293333 71.11459449 97.04986991 76.55371094 104.34448242 C81.43007888 110.88369429 86.36278069 117.37671643 91.33886719 123.84033203 C91.84192383 124.49501465 92.34498047 125.14969727 92.86328125 125.82421875 C93.30196533 126.39342041 93.74064941 126.96262207 94.19262695 127.54907227 C97.05500494 131.38311025 97.68577092 133.36765839 97.375 138.1328125 C94.6635406 140.8442719 85.95172051 139.63506691 82.15771484 139.70263672 C80.56279493 139.73918629 78.96817703 139.7936494 77.37451172 139.86669922 C64.21609304 140.46070314 64.21609304 140.46070314 59.91650391 137.35961914 C58.09372235 135.04226712 56.73277896 132.74603306 55.375 130.1328125 C54.46743935 128.80210447 53.54367819 127.48225292 52.6015625 126.17578125 C51.73204513 124.89220021 50.86487854 123.60702376 50 122.3203125 C45.84135509 116.18498742 41.50772645 110.2403803 36.95703125 104.390625 C35.375 102.1328125 35.375 102.1328125 35.375 100.1328125 C29.89633783 103.58563509 29.89633783 103.58563509 25.375 108.1328125 C24.74964463 111.39830963 24.74964463 111.39830963 24.80078125 115.05078125 C24.78661667 115.70863113 24.77245209 116.36648102 24.75785828 117.04426575 C24.71606089 119.13644959 24.70073328 121.22777042 24.6875 123.3203125 C24.65846367 125.4231666 24.6239805 127.52580162 24.58500671 129.62849426 C24.55224375 131.52846869 24.53420063 133.42867979 24.5168457 135.32885742 C24.375 138.1328125 24.375 138.1328125 23.375 139.1328125 C21.16849344 139.23293651 18.95877614 139.2636243 16.75 139.265625 C16.08790527 139.26658173 15.42581055 139.26753845 14.74365234 139.26852417 C13.34147039 139.26920576 11.9392853 139.26735292 10.53710938 139.26318359 C8.38404287 139.25783496 6.23118498 139.2631292 4.078125 139.26953125 C2.71874954 139.26887046 1.3593742 139.26758929 0 139.265625 C-1.24523437 139.26449707 -2.49046875 139.26336914 -3.7734375 139.26220703 C-6.625 139.1328125 -6.625 139.1328125 -7.625 138.1328125 C-7.72352467 136.36352293 -7.75132089 134.59026785 -7.75198364 132.8182373 C-7.75480347 131.6655687 -7.75762329 130.51290009 -7.76052856 129.32530212 C-7.75850433 128.04941727 -7.7564801 126.77353241 -7.75439453 125.45898438 C-7.75574856 124.11072238 -7.7575285 122.76246075 -7.75970459 121.41419983 C-7.76427873 117.74281222 -7.76248945 114.07145259 -7.7593255 110.40006447 C-7.7568018 106.56614733 -7.75913947 102.73223266 -7.76071167 98.89831543 C-7.76253334 92.45873584 -7.76012713 86.0191677 -7.75537109 79.57958984 C-7.74992848 72.12409087 -7.75169114 64.66861924 -7.7571975 57.21312094 C-7.76172871 50.82332674 -7.76237914 44.4335408 -7.75975883 38.04374552 C-7.7581961 34.22243202 -7.75800217 30.4011314 -7.76129532 26.57981873 C-7.76417416 22.98807425 -7.76219812 19.39636519 -7.75640106 15.80462456 C-7.75443793 13.84985783 -7.75742727 11.89508813 -7.76052856 9.94032288 C-7.75770874 8.78765427 -7.75488892 7.63498566 -7.75198364 6.4473877 C-7.75160662 5.4393232 -7.75122959 4.4312587 -7.75084114 3.39264679 C-7.48774782 -1.33193928 -3.98395508 0.00360865 0 0 Z M-4.625 3.1328125 C-4.625 47.0228125 -4.625 90.9128125 -4.625 136.1328125 C3.955 136.1328125 12.535 136.1328125 21.375 136.1328125 C21.36597656 134.04839844 21.35695313 131.96398437 21.34765625 129.81640625 C21.36271172 127.77738194 21.38965903 125.73883312 21.41772461 123.69995117 C21.43079127 122.29278512 21.43166558 120.88544714 21.41967773 119.47827148 C21.33276022 107.80235231 21.33276022 107.80235231 23.90991211 103.67407227 C25.6454111 101.92589383 27.34033782 100.51290394 29.375 99.1328125 C30.179375 98.4934375 30.98375 97.8540625 31.8125 97.1953125 C32.328125 96.8446875 32.84375 96.4940625 33.375 96.1328125 C37.49424115 97.64257962 39.37848063 100.51320053 41.75 104.0078125 C42.16773682 104.60770996 42.58547363 105.20760742 43.01586914 105.82568359 C43.95014816 107.1684467 44.8806739 108.51382646 45.80810547 109.86132812 C48.16427285 113.27699987 50.54850452 116.67288432 52.93017578 120.07080078 C54.16865651 121.838728 55.40536057 123.60790138 56.64013672 125.37841797 C57.21135254 126.19713379 57.78256836 127.01584961 58.37109375 127.859375 C58.87825928 128.58721191 59.3854248 129.31504883 59.90795898 130.06494141 C60.39208252 130.74733887 60.87620605 131.42973633 61.375 132.1328125 C61.79056152 132.87289551 62.20612305 133.61297852 62.63427734 134.37548828 C64.33395546 136.44329632 64.33395546 136.44329632 67.46948242 136.58691406 C68.71060791 136.5659668 69.9517334 136.54501953 71.23046875 136.5234375 C71.89210526 136.51777771 72.55374176 136.51211792 73.23542786 136.50628662 C75.34519332 136.48392497 77.45324952 136.43373621 79.5625 136.3828125 C80.99411606 136.3627469 82.4257588 136.34449622 83.85742188 136.328125 C87.36383515 136.28406319 90.86925072 136.21504027 94.375 136.1328125 C92.81095119 132.0004582 90.94754541 129.04232942 88.1875 125.5703125 C87.28503333 124.42299446 86.38409335 123.27447452 85.484375 122.125 C84.99001953 121.49432617 84.49566406 120.86365234 83.98632812 120.21386719 C80.91601744 116.24851442 77.93465931 112.21604931 74.9375 108.1953125 C69.98507284 101.56167158 64.97839043 94.98268769 59.78735352 88.53344727 C57.38361569 85.52416242 55.27554457 82.48344789 53.375 79.1328125 C54.6628331 77.65030695 55.95539064 76.17190432 57.25 74.6953125 C57.96929687 73.87160156 58.68859375 73.04789062 59.4296875 72.19921875 C61.375 70.1328125 61.375 70.1328125 63.375 69.1328125 C63.375 68.4728125 63.375 67.8128125 63.375 67.1328125 C64.365 66.8028125 65.355 66.4728125 66.375 66.1328125 C67.95340572 64.57576056 67.95340572 64.57576056 69.5 62.6328125 C72.16714921 59.48175015 74.93064922 56.52691839 77.875 53.6328125 C83.94015521 47.66463505 83.94015521 47.66463505 89.375 41.1328125 C89.375 40.4728125 89.375 39.8128125 89.375 39.1328125 C85.28661435 38.88281714 81.20126367 38.70293396 77.10693359 38.58349609 C75.71942584 38.53365514 74.33243112 38.46574217 72.94677734 38.37841797 C64.27144721 37.84400267 64.27144721 37.84400267 56.41308594 41.12207031 C53.84366976 43.66422478 51.5970249 46.28424098 49.375 49.1328125 C48.20113109 50.48667569 47.02072373 51.83491439 45.83203125 53.17578125 C45.28240723 53.81692871 44.7327832 54.45807617 44.16650391 55.11865234 C40.65006134 59.07213437 36.83297433 62.7362966 33.0625 66.4453125 C31.45992403 68.02239004 29.85955913 69.60171846 28.26171875 71.18359375 C27.56264404 71.87106689 26.86356934 72.55854004 26.14331055 73.2668457 C24.19931474 75.21249243 24.19931474 75.21249243 22.375 78.1328125 C22.045 53.3828125 21.715 28.6328125 21.375 3.1328125 C12.795 3.1328125 4.215 3.1328125 -4.625 3.1328125 Z " fill="#FFFFFF" transform="translate(428.625,95.8671875)"/>
<path d="M0 0 C7.28836468 2.41524755 13.76887986 7.65331978 18 14 C18.67681327 21.10653931 18.67681327 21.10653931 16.42578125 24.078125 C13.44464908 26.43998816 10.36669958 27.60401168 6.8125 28.8125 C5.38461102 29.32458198 3.95755463 29.83899028 2.53125 30.35546875 C1.79132813 30.62149902 1.05140625 30.8875293 0.2890625 31.16162109 C-3.56719423 32.57399157 -7.38033906 34.08591724 -11.1875 35.625 C-11.89350342 35.90190674 -12.59950684 36.17881348 -13.3269043 36.46411133 C-13.99633057 36.73634521 -14.66575684 37.0085791 -15.35546875 37.2890625 C-15.93965576 37.52318848 -16.52384277 37.75731445 -17.12573242 37.99853516 C-19.80545669 39.43037428 -21.80687915 40.87312743 -24 43 C-24.73297212 46.07134516 -24.73297212 46.07134516 -24.59594727 49.5534668 C-24.6000058 50.20283707 -24.60406433 50.85220734 -24.60824585 51.52125549 C-24.61375502 52.92788904 -24.60777681 54.33460448 -24.59158516 55.74115562 C-24.56611158 57.97505953 -24.57098023 60.20712249 -24.58348083 62.44111633 C-24.60422402 67.19011343 -24.58458204 71.9385406 -24.5625 76.6875 C-24.5413306 82.17636387 -24.53699405 87.66463031 -24.56300163 93.15348244 C-24.56633682 95.34117497 -24.54522386 97.52770045 -24.52259827 99.71525574 C-24.50729725 107.28897877 -25.0283778 113.41394651 -29 120 C-29.46921875 120.79792969 -29.9384375 121.59585938 -30.421875 122.41796875 C-35.39949573 129.04991637 -41.66264839 134.9056945 -50.05859375 136.35546875 C-53.39979901 136.65409249 -55.9271412 136.67456573 -58.8203125 134.85546875 C-61.56726947 132.22988895 -63.75212403 129.35111607 -65.94140625 126.25 C-71.22706554 118.7741504 -76.72636899 113.60008895 -84.05859375 108.1796875 C-87 106 -87 106 -89 104 C-89.1875 100.4375 -89.1875 100.4375 -89 97 C-88 96 -88 96 -84.25 95.625 C-78.83793653 95.65073089 -74.56364618 97.57667999 -69.69921875 99.80859375 C-64.52960019 101.47357122 -59.40054854 101.7092564 -54 102 C-51.69349074 85.65609173 -50.70537657 69.61277982 -50.75 53.125 C-50.75104736 52.2674411 -50.75209473 51.4098822 -50.75317383 50.52633667 C-50.75954982 48.061692 -50.77549276 45.59736933 -50.796875 43.1328125 C-50.80343109 42.03280159 -50.80343109 42.03280159 -50.81011963 40.91056824 C-50.86593534 36.8455313 -51.21967948 32.98995552 -52 29 C-52.95084473 29.21934204 -52.95084473 29.21934204 -53.92089844 29.44311523 C-84.10305311 36.3527785 -84.10305311 36.3527785 -89.6015625 33.78515625 C-92.17120979 31.87256861 -93.55735551 30.14127685 -95.25 27.4375 C-95.75015625 26.65246094 -96.2503125 25.86742188 -96.765625 25.05859375 C-98.92513609 21.45713063 -99.2649689 19.23950238 -99 15 C-97 13 -97 13 -95.14794922 12.76049805 C-94.37467285 12.76090088 -93.60139648 12.76130371 -92.8046875 12.76171875 C-91.88413574 12.74890869 -90.96358398 12.73609863 -90.01513672 12.72290039 C-88.46076904 12.7053772 -88.46076904 12.7053772 -86.875 12.6875 C-73.13870163 12.35476239 -59.53457063 10.99088912 -45.875 9.5625 C-44.80699158 9.45304047 -43.73898315 9.34358093 -42.63861084 9.23080444 C-39.54732022 8.91242552 -36.45714027 8.58499518 -33.3671875 8.25390625 C-31.97777954 8.11008011 -31.97777954 8.11008011 -30.56030273 7.96334839 C-20.29908094 7.0925222 -20.29908094 7.0925222 -11.5 2.375 C-7.83341161 -0.42690542 -4.50085424 -0.91572082 0 0 Z M-9.734375 5.875 C-16.12504918 10.27118212 -23.25042519 10.55243627 -30.75 11.25 C-32.23922471 11.40595678 -33.72823903 11.56393507 -35.21704102 11.72387695 C-38.15207704 12.03485465 -41.08794954 12.33144957 -44.02587891 12.61376953 C-47.32691976 12.93458576 -50.6222049 13.28224999 -53.91796875 13.65234375 C-67.57629169 15.13961497 -81.27262285 15.59850972 -95 16 C-96.34787889 18.92702913 -96.34787889 18.92702913 -94.9609375 21.375 C-94.17589844 22.674375 -94.17589844 22.674375 -93.375 24 C-92.61316406 25.299375 -92.61316406 25.299375 -91.8359375 26.625 C-89.70836497 29.37726404 -88.22488845 30.67590417 -85 32 C-81.60709067 31.85283894 -81.60709067 31.85283894 -77.9375 30.9375 C-76.52995009 30.63801061 -75.12239789 30.338532 -73.71484375 30.0390625 C-72.96315918 29.87180664 -72.21147461 29.70455078 -71.43701172 29.53222656 C-67.87874655 28.75512597 -64.30583508 28.05661904 -60.73266602 27.35180664 C-56.81941468 26.57950501 -52.90987722 25.78918628 -49 25 C-48.15931254 30.85546153 -47.83992474 36.53770924 -47.83203125 42.44921875 C-47.82703865 43.78917656 -47.82703865 43.78917656 -47.82194519 45.15620422 C-47.81690426 47.04464203 -47.81453598 48.93308867 -47.81469727 50.8215332 C-47.81254068 53.63443844 -47.79443805 56.44693115 -47.77539062 59.25976562 C-47.74546041 68.70248816 -48.01756224 78.05102475 -48.88671875 87.45703125 C-48.96445023 88.31366867 -49.0421817 89.17030609 -49.12226868 90.05290222 C-49.61935096 94.9033071 -50.3618112 99.39617031 -52 104 C-57.48886795 106.74443398 -66.0811545 104.62383067 -71.640625 102.81640625 C-73.82922042 101.93447225 -76.0044786 101.01818292 -78.16015625 100.05859375 C-81.00876386 98.99673314 -82.99293849 98.78481578 -86 99 C-85.69046481 102.09535193 -84.97073546 103.0278897 -82.671875 105.21875 C-81.70765625 105.9715625 -80.7434375 106.724375 -79.75 107.5 C-78.79609375 108.2528125 -77.8421875 109.005625 -76.859375 109.78125 C-75.07433588 111.16636232 -73.27555526 112.5341528 -71.45703125 113.875 C-68.49360887 116.4379599 -66.24156072 119.35907023 -63.9375 122.5 C-59.87832546 128.12040314 -59.87832546 128.12040314 -55 133 C-47.99075089 133.23760166 -43.24682143 130.50265825 -38 126 C-30.40648133 118.03928991 -27.50220494 110.28194602 -27.7421875 99.4375 C-27.74952911 98.53609283 -27.75687073 97.63468567 -27.76443481 96.70596313 C-27.78104797 94.79001543 -27.8040506 92.87411389 -27.83300781 90.95831299 C-27.88939274 86.98604413 -27.90240546 83.01401578 -27.91778564 79.04141235 C-27.94241701 72.92494025 -27.98035987 66.80857534 -28.04394531 60.69238281 C-28.06777027 57.334829 -28.04414519 53.98221413 -28 50.625 C-28.0191748 49.70203125 -28.03834961 48.7790625 -28.05810547 47.828125 C-27.9775447 44.30782238 -27.81702822 41.97568619 -25.51269531 39.22387695 C-20.54013943 35.18445971 -14.73370766 33.04191191 -8.75 30.9375 C-6.89560286 30.25192516 -5.04143491 29.56573008 -3.1875 28.87890625 C-0.75484298 27.99314017 1.67905243 27.11296704 4.12109375 26.25341797 C5.83786107 25.64710643 7.54456402 25.01248869 9.25 24.375 C10.16265625 24.05273438 11.0753125 23.73046875 12.015625 23.3984375 C14.30282225 22.08908917 14.30282225 22.08908917 14.9140625 19.0390625 C15.2852238 15.84030344 15.2852238 15.84030344 13.125 13 C8.70484134 8.34655519 3.532672 4.90452572 -2.5 2.75 C-6.38488753 3.02749197 -6.8632493 3.5270572 -9.734375 5.875 Z " fill="#FFFFFF" transform="translate(138,97)"/>
<path d="M0 0 C0.92490234 -0.01998047 1.84980469 -0.03996094 2.80273438 -0.06054688 C12.97028912 -0.05342175 21.61336651 3.50209985 29.0625 10.4375 C36.59116295 18.52384169 40.1849358 28.46524417 40.19189453 39.39331055 C40.19452301 40.43053253 40.19452301 40.43053253 40.19720459 41.4887085 C40.20159515 43.76723766 40.19869594 46.04568884 40.1953125 48.32421875 C40.19598611 49.90794388 40.19695662 51.4916689 40.19821167 53.07539368 C40.19968466 56.3898721 40.19754603 59.70432354 40.19287109 63.01879883 C40.18716005 67.27617623 40.190464 71.53349078 40.19644356 75.7908659 C40.20004803 79.05840025 40.19891136 82.32591957 40.19631577 85.59345436 C40.1956469 87.16400981 40.19647351 88.7345666 40.19879532 90.30512047 C40.20132149 92.49340846 40.19748245 94.68159282 40.19189453 96.86987305 C40.19109894 98.11689499 40.19030334 99.36391693 40.18948364 100.64872742 C40.0625 103.4375 40.0625 103.4375 39.0625 104.4375 C34.80501574 104.65559756 30.54204276 104.62329161 26.27954102 104.62280273 C24.13733 104.62498743 21.99563529 104.64313512 19.85351562 104.66210938 C18.4973976 104.66504359 17.14127712 104.6670282 15.78515625 104.66796875 C14.54515869 104.67207764 13.30516113 104.67618652 12.02758789 104.68041992 C9.0625 104.4375 9.0625 104.4375 7.0625 102.4375 C6.83544922 100.25219727 6.83544922 100.25219727 6.8671875 97.50390625 C6.87379395 96.47523438 6.88040039 95.4465625 6.88720703 94.38671875 C6.90380371 93.26910156 6.92040039 92.15148437 6.9375 91 C6.94507324 89.85015625 6.95264648 88.7003125 6.96044922 87.515625 C6.99316472 82.58559861 7.04903524 77.6559008 7.10351562 72.72607422 C7.1399035 69.12989869 7.16397037 65.53377912 7.1875 61.9375 C7.20409668 60.83607666 7.22069336 59.73465332 7.23779297 58.59985352 C7.29101397 50.10980579 6.59261778 41.28220617 3.0625 33.4375 C1.19502737 32.04511953 1.19502737 32.04511953 -0.9375 31.4375 C-1.9275 31.1075 -2.9175 30.7775 -3.9375 30.4375 C-10.1938439 29.6596242 -15.03423688 30.11291342 -20.24609375 33.80859375 C-24.6395023 38.03965926 -26.73912361 44.03243157 -27.08898926 50.0377655 C-27.10778137 51.5121685 -27.10778137 51.5121685 -27.12695312 53.01635742 C-27.15202942 54.69280586 -27.15202942 54.69280586 -27.1776123 56.40312195 C-27.19118774 57.60427139 -27.20476318 58.80542084 -27.21875 60.04296875 C-27.23715942 61.2779158 -27.25556885 62.51286285 -27.27453613 63.78523254 C-27.34331468 68.40425627 -27.40389249 73.02336949 -27.46356201 77.64251709 C-27.52246392 82.17192257 -27.58857446 86.70118719 -27.65625 91.23046875 C-27.66982544 92.43769089 -27.68340088 93.64491302 -27.6973877 94.88871765 C-27.72246399 96.55098137 -27.72246399 96.55098137 -27.74804688 98.24682617 C-27.76683899 99.717649 -27.76683899 99.717649 -27.78601074 101.21818542 C-27.9375 103.4375 -27.9375 103.4375 -28.9375 104.4375 C-31.14400656 104.53762401 -33.35372386 104.5683118 -35.5625 104.5703125 C-36.22459473 104.57126923 -36.88668945 104.57222595 -37.56884766 104.57321167 C-38.97102961 104.57389326 -40.3732147 104.57204042 -41.77539062 104.56787109 C-43.92845713 104.56252246 -46.08131502 104.5678167 -48.234375 104.57421875 C-49.59375046 104.57355796 -50.9531258 104.57227679 -52.3125 104.5703125 C-53.55773437 104.56918457 -54.80296875 104.56805664 -56.0859375 104.56689453 C-58.9375 104.4375 -58.9375 104.4375 -59.9375 103.4375 C-60.04350402 100.34315762 -60.08427455 97.27101169 -60.08276367 94.17602539 C-60.08612228 93.20373489 -60.0894809 92.2314444 -60.09294128 91.22969055 C-60.10248262 87.99816632 -60.10439597 84.76669371 -60.10546875 81.53515625 C-60.10867907 79.29935179 -60.11204296 77.06354754 -60.11555481 74.82774353 C-60.12155402 70.13426221 -60.12339389 65.44079934 -60.12280273 60.74731445 C-60.12270105 54.71985892 -60.13635576 48.69252104 -60.15357494 42.66509342 C-60.16466883 38.04556226 -60.16672275 33.42605977 -60.16619301 28.80651665 C-60.16737698 26.58366935 -60.17182192 24.3608214 -60.17952538 22.13798714 C-60.18927292 19.03469623 -60.18646804 15.9316638 -60.18041992 12.82836914 C-60.18603943 11.90205688 -60.19165894 10.97574463 -60.19744873 10.0213623 C-60.19325424 9.17864273 -60.18905975 8.33592316 -60.18473816 7.46766663 C-60.18555531 6.36622865 -60.18555531 6.36622865 -60.18638897 5.24253941 C-59.9375 3.4375 -59.9375 3.4375 -57.9375 1.4375 C-55.35546875 1.17871094 -55.35546875 1.17871094 -52.125 1.171875 C-50.96742188 1.16929687 -49.80984375 1.16671875 -48.6171875 1.1640625 C-47.40289062 1.17179688 -46.18859375 1.17953125 -44.9375 1.1875 C-43.72320312 1.17976562 -42.50890625 1.17203125 -41.2578125 1.1640625 C-39.52144531 1.16792969 -39.52144531 1.16792969 -37.75 1.171875 C-36.68394531 1.17413086 -35.61789062 1.17638672 -34.51953125 1.17871094 C-31.9375 1.4375 -31.9375 1.4375 -29.9375 3.4375 C-29.53985737 5.42571313 -29.19974651 7.42694339 -28.9375 9.4375 C-28.39222656 9.03917969 -27.84695313 8.64085937 -27.28515625 8.23046875 C-26.53105469 7.70066406 -25.77695312 7.17085937 -25 6.625 C-24.26910156 6.10292969 -23.53820312 5.58085937 -22.78515625 5.04296875 C-15.38305486 0.86976755 -8.40743881 -0.06417892 0 0 Z M-31.9375 17.4375 C-31.99808594 16.58285156 -32.05867188 15.72820312 -32.12109375 14.84765625 C-32.24677734 13.19056641 -32.24677734 13.19056641 -32.375 11.5 C-32.45621094 10.39785156 -32.53742188 9.29570312 -32.62109375 8.16015625 C-32.64168084 5.52640097 -32.64168084 5.52640097 -33.9375 4.4375 C-35.56007544 4.3383343 -37.18689831 4.30670223 -38.8125 4.3046875 C-39.79734375 4.30339844 -40.7821875 4.30210937 -41.796875 4.30078125 C-43.35148437 4.30658203 -43.35148437 4.30658203 -44.9375 4.3125 C-45.97390625 4.30863281 -47.0103125 4.30476562 -48.078125 4.30078125 C-49.06296875 4.30207031 -50.0478125 4.30335938 -51.0625 4.3046875 C-51.97257812 4.30581543 -52.88265625 4.30694336 -53.8203125 4.30810547 C-55.9227848 4.20189991 -55.9227848 4.20189991 -56.9375 5.4375 C-57.0327822 8.42048214 -57.06302175 11.38026345 -57.05102539 14.36352539 C-57.05117142 15.30001419 -57.05131744 16.23650299 -57.0514679 17.20137024 C-57.05076837 20.31265539 -57.04297415 23.42388149 -57.03515625 26.53515625 C-57.03329221 28.68607043 -57.03186824 30.83698503 -57.03086853 32.98789978 C-57.02704225 38.66131758 -57.01721102 44.33470995 -57.00616455 50.00811768 C-56.9959528 55.79251766 -56.99137142 61.57692173 -56.98632812 67.36132812 C-56.97558885 78.72006507 -56.95799116 90.07877645 -56.9375 101.4375 C-48.3575 101.4375 -39.7775 101.4375 -30.9375 101.4375 C-30.90011719 97.4878125 -30.86273438 93.538125 -30.82421875 89.46875 C-30.77796415 85.62950201 -30.7267446 81.79035 -30.67504883 77.95117188 C-30.64024213 75.28967393 -30.61381239 72.62846857 -30.59106445 69.96679688 C-30.55740411 66.13381503 -30.50507986 62.30146484 -30.44921875 58.46875 C-30.44282883 57.28510864 -30.4364389 56.10146729 -30.42985535 54.88195801 C-30.2699665 45.83056528 -28.83822503 38.64949726 -22.9375 31.4375 C-17.86927601 27.76055318 -13.2376702 26.17411496 -6.9375 26.4375 C-0.95260602 27.53895443 3.23086097 29.5608685 7.0625 34.4375 C11.11709035 41.93849214 10.18648134 51.5173179 10.125 59.77734375 C10.11932007 61.52139244 10.11932007 61.52139244 10.11352539 63.30067444 C10.10136312 66.99215497 10.08271523 70.68355533 10.0625 74.375 C10.0360193 79.25911221 10.01599863 84.14318728 10 89.02734375 C9.99170166 90.15639633 9.98340332 91.28544891 9.97485352 92.44871521 C9.97155029 93.483918 9.96824707 94.51912079 9.96484375 95.58569336 C9.95698853 96.95847694 9.95698853 96.95847694 9.94897461 98.35899353 C9.83003516 100.42753203 9.83003516 100.42753203 11.0625 101.4375 C12.98917507 101.52498207 14.91901861 101.54447334 16.84765625 101.53515625 C18.01748047 101.53193359 19.18730469 101.52871094 20.39257812 101.52539062 C21.62427734 101.51701172 22.85597656 101.50863281 24.125 101.5 C25.36056641 101.49548828 26.59613281 101.49097656 27.86914062 101.48632812 C30.93364117 101.47449608 33.99804721 101.45801173 37.0625 101.4375 C37.15570783 92.90908951 37.22651969 84.38089639 37.26974869 75.85210037 C37.29050994 71.89063612 37.31861381 67.92952361 37.36425781 63.96826172 C37.40813014 60.13621376 37.43172298 56.30450136 37.44200897 52.47222137 C37.44932697 51.01955645 37.46361443 49.5669072 37.48542023 48.11438751 C37.67086019 35.23460712 35.69865679 23.49302515 27.0625 13.4375 C24.58192899 11.04781198 22.02119764 9.19456051 19.0625 7.4375 C18.36898437 7.02371094 17.67546875 6.60992187 16.9609375 6.18359375 C-0.27235862 -2.31461241 -19.34246316 4.59333056 -31.9375 17.4375 Z " fill="#FFFFFF" transform="translate(360.9375,130.5625)"/>
<path d="M0 0 C4.25414623 -0.02465622 8.50825498 -0.04283899 12.76245117 -0.05493164 C14.21070073 -0.05997101 15.65894517 -0.06680253 17.10717773 -0.07543945 C19.18474588 -0.08752247 21.26224697 -0.09323211 23.33984375 -0.09765625 C24.59144287 -0.10289307 25.84304199 -0.10812988 27.13256836 -0.11352539 C30 0 30 0 31 1 C31.10774917 2.84909065 31.14627044 4.70225138 31.15771484 6.55444336 C31.16797699 7.74335678 31.17823914 8.9322702 31.18881226 10.1572113 C31.19611359 11.45498001 31.20341492 12.75274872 31.2109375 14.08984375 C31.22390254 15.43210167 31.23771877 16.77435161 31.25234985 18.11659241 C31.31392017 23.82382883 31.36773647 29.53105083 31.40136719 35.23852539 C31.42248387 38.72823802 31.45793499 42.2175704 31.50212479 45.70706367 C31.52294785 47.66871608 31.52830751 49.63051332 31.53329468 51.5922699 C31.62991694 58.69195057 31.984302 65.45646231 35 72 C37.0808854 73.78348677 37.0808854 73.78348677 40 74 C41.02867187 74.20882812 41.02867187 74.20882812 42.078125 74.421875 C47.55155863 75.35273106 51.07176624 74.84321179 56 72 C60.50306977 68.41801268 62.63481195 64.51700273 64 59 C64.4305907 54.60558187 64.44098007 50.23332272 64.44140625 45.8203125 C64.45461411 44.57120087 64.46782196 43.32208923 64.48143005 42.03512573 C64.51527124 38.73813002 64.53775346 35.44135257 64.55297852 32.14422607 C64.57497437 27.47955304 64.60753548 22.81509751 64.65428162 18.15060425 C64.67871227 15.67112877 64.69351077 13.19153654 64.69789124 10.71194458 C64.70807785 9.59673431 64.71826447 8.48152405 64.72875977 7.33251953 C64.73303482 6.34849152 64.73730988 5.3644635 64.74171448 4.35061646 C65 2 65 2 67 0 C69.96508789 -0.24291992 69.96508789 -0.24291992 73.72265625 -0.23046875 C74.38333603 -0.23001053 75.04401581 -0.22955231 75.72471619 -0.2290802 C77.12093909 -0.22605921 78.51715867 -0.21817742 79.91333008 -0.20581055 C82.05757498 -0.18754196 84.20138849 -0.18530094 86.34570312 -0.18554688 C96.85256788 -0.14743212 96.85256788 -0.14743212 98 1 C98.10068417 4.13023484 98.1361416 7.2384492 98.12939453 10.36914062 C98.13202301 11.84461617 98.13202301 11.84461617 98.13470459 13.34989929 C98.13912505 16.61870053 98.13618443 19.88744816 98.1328125 23.15625 C98.13348548 25.41687022 98.13445546 27.67749038 98.13571167 29.93811035 C98.13718891 34.68286832 98.13503326 39.42760749 98.13037109 44.17236328 C98.1246738 50.26938624 98.12795266 56.36636519 98.13394356 62.46338654 C98.13754848 67.13348729 98.1364109 71.80357753 98.13381577 76.47367859 C98.1331463 78.72246811 98.13397558 80.97125857 98.13629532 83.220047 C98.13882071 86.35701038 98.13498285 89.49390141 98.12939453 92.63085938 C98.13141876 93.57011765 98.13344299 94.50937592 98.13552856 95.47709656 C98.11426225 101.88573775 98.11426225 101.88573775 97 103 C92.35984675 103.2541555 87.70878694 103.18522798 83.0625 103.1875 C81.74830078 103.19974609 80.43410156 103.21199219 79.08007812 103.22460938 C77.82775391 103.22654297 76.57542969 103.22847656 75.28515625 103.23046875 C73.55084351 103.23663208 73.55084351 103.23663208 71.78149414 103.24291992 C69 103 69 103 67 101 C66.875 98.375 66.875 98.375 67 96 C66.38253906 96.39832031 65.76507812 96.79664063 65.12890625 97.20703125 C64.28199219 97.73683594 63.43507813 98.26664062 62.5625 98.8125 C61.73878906 99.33457031 60.91507813 99.85664063 60.06640625 100.39453125 C53.03666672 104.07507004 46.53411027 105.53787147 38.625 105.4375 C37.79718018 105.43137695 36.96936035 105.42525391 36.11645508 105.41894531 C24.67543533 105.12791066 15.80705535 101.15635687 7.875 92.875 C-1.68763208 81.72467901 -2.30995056 67.74909967 -2.265625 53.671875 C-2.26697577 52.31048514 -2.26891972 50.94909575 -2.27142334 49.58770752 C-2.27435124 46.75373682 -2.27015028 43.91989328 -2.26074219 41.0859375 C-2.24930504 37.46587476 -2.25594863 33.84610728 -2.26788712 30.22605515 C-2.27513193 27.42240188 -2.27280654 24.61881808 -2.26763153 21.81516266 C-2.26566339 19.83549302 -2.27169863 17.8558206 -2.27789307 15.87615967 C-2.27158875 14.66760315 -2.26528442 13.45904663 -2.25878906 12.21386719 C-2.25719788 11.15592957 -2.25560669 10.09799194 -2.25396729 9.00799561 C-1.97860179 5.746559 -1.1504336 3.05390554 0 0 Z M2 3 C1.23560415 6.82197923 0.86176042 9.81454172 0.82299805 13.63793945 C0.81016281 14.74712234 0.79732758 15.85630524 0.78410339 16.99909973 C0.77671646 18.19177963 0.76932953 19.38445953 0.76171875 20.61328125 C0.753647 21.85563034 0.74557526 23.09797943 0.73725891 24.37797546 C0.72343227 27.01154282 0.7124145 29.64498573 0.70483398 32.27856445 C0.69603482 34.94858718 0.67299364 37.61735099 0.64331055 40.28735352 C-0.25837336 68.55894909 -0.25837336 68.55894909 12.625 92.73046875 C21.03878798 100.61839498 30.92032922 102.48998072 42.1015625 102.28125 C51.59320123 101.59648248 61.13517909 97.34792352 67.5 90.1875 C67.995 89.465625 68.49 88.74375 69 88 C69.06058594 88.78246094 69.12117187 89.56492187 69.18359375 90.37109375 C69.26738281 91.38300781 69.35117187 92.39492187 69.4375 93.4375 C69.51871094 94.44683594 69.59992188 95.45617187 69.68359375 96.49609375 C69.73211468 98.93640779 69.73211468 98.93640779 71 100 C78.92 100 86.84 100 95 100 C95 67.99 95 35.98 95 3 C86.42 3 77.84 3 69 3 C67.30224538 4.69775462 67.86640109 6.86401191 67.8581543 9.18725586 C67.85111984 10.29608627 67.84408539 11.40491669 67.83683777 12.54734802 C67.83059135 14.36275841 67.83059135 14.36275841 67.82421875 16.21484375 C67.80100376 18.76367998 67.77688577 21.31250812 67.75195312 23.86132812 C67.71568968 27.89005412 67.6858821 31.91863259 67.67407227 35.94750977 C67.65852185 39.82865476 67.61824339 43.70893051 67.57421875 47.58984375 C67.57612717 48.78189926 67.57803558 49.97395477 67.58000183 51.20213318 C67.46623971 59.04706488 66.888972 67.19655951 60.98661804 72.96910095 C54.77746052 77.94925591 48.84399453 78.83496793 41 78 C36.39471647 76.64550484 33.68551739 75.06144629 31.0625 71 C29.46166502 66.47999534 28.86433892 62.7628627 28.79467773 57.94628906 C28.77473251 56.72532532 28.75478729 55.50436157 28.73423767 54.24639893 C28.71752518 52.93274353 28.70081268 51.61908813 28.68359375 50.265625 C28.66301081 48.90370064 28.64201399 47.54178248 28.62062073 46.17987061 C28.56553835 42.60265128 28.51606836 39.02537562 28.46777344 35.44805908 C28.41745711 31.79474906 28.36182403 28.14152042 28.30664062 24.48828125 C28.19922835 17.32558794 28.09823774 10.16282609 28 3 C19.42 3 10.84 3 2 3 Z " fill="#FFFFFF" transform="translate(530,132)"/>
<path d="M0 0 C5.00720387 1.7882871 8.50392985 4.81070153 12.5 8.25 C13.51900391 9.06984375 13.51900391 9.06984375 14.55859375 9.90625 C17.70091967 12.46714763 19.99090181 14.3925978 21.5 18.25 C21.28291598 24.43689445 21.28291598 24.43689445 18.98046875 26.828125 C15.468541 28.84126154 11.86213719 29.54290775 7.9375 30.4375 C-0.21114274 32.40299381 -7.68115249 35.18996997 -15.26782227 38.74682617 C-22.12892711 41.86956087 -22.12892711 41.86956087 -26.5 40.25 C-24.6425241 37.42663663 -22.78031109 34.6322424 -20.78125 31.90625 C-17.0698947 26.8109995 -14.39518148 22.26998824 -12.5 16.25 C-13.58539063 16.394375 -14.67078125 16.53875 -15.7890625 16.6875 C-17.2343491 16.87519956 -18.67966307 17.06268838 -20.125 17.25 C-20.83785156 17.34539063 -21.55070313 17.44078125 -22.28515625 17.5390625 C-26.38821609 18.06606101 -30.35245742 18.35466984 -34.5 18.25 C-32.61833565 13.97349011 -29.78426692 8.39213346 -25.5 6.25 C-23.48014159 6.14567446 -21.45896713 6.06620009 -19.4375 6 C-14.75811131 5.70076677 -11.6064659 5.11427574 -7.625 2.625 C-4.6655941 0.78478761 -3.6048624 0.25749017 0 0 Z " fill="#B50000" transform="translate(165.5,44.75)"/>
<path d="M0 0 C4.4947036 1.95333735 7.11301365 4.80811209 10 8.6875 C11.80245936 14.65814663 12.34551601 21.19497567 9.375 26.875 C6.47106819 30.6959629 3.62929044 33.86064081 -0.875 35.8125 C-7.50218725 36.39725182 -12.08164461 36.39757439 -18 33 C-21.87529673 29.30799433 -24.75280666 26.02811843 -25.203125 20.51171875 C-25.29566383 14.93625452 -25.35576823 10.69807552 -22 6 C-15.25502063 -0.60108647 -9.24926141 -1.06371571 0 0 Z " fill="#000000" transform="translate(272,89)"/>
<path d="M0 0 C-0.99 2.97 -1.98 5.94 -3 9 C-2.03578125 8.7834375 -1.0715625 8.566875 -0.078125 8.34375 C1.18515625 8.0653125 2.4484375 7.786875 3.75 7.5 C5.00296875 7.2215625 6.2559375 6.943125 7.546875 6.65625 C11 6 11 6 15 6 C13.69806621 11.7863724 10.50534069 16.21695842 6 20 C3.26953125 20.73046875 3.26953125 20.73046875 1 21 C-1.475 17.04 -1.475 17.04 -4 13 C-4.66 14.32 -5.32 15.64 -6 17 C-6.66 17 -7.32 17 -8 17 C-8.433125 18.2065625 -8.433125 18.2065625 -8.875 19.4375 C-10 22 -10 22 -12 23 C-12.66 19.37 -13.32 15.74 -14 12 C-14.80630859 12.176521 -15.61261719 12.35304199 -16.44335938 12.53491211 C-19.46944448 13.19561895 -22.49620397 13.85312173 -25.5234375 14.50854492 C-27.46406985 14.92970241 -29.40391851 15.35446589 -31.34375 15.77929688 C-34.8910161 16.54602366 -38.44207905 17.28447911 -42 18 C-42.83015625 18.17160645 -43.6603125 18.34321289 -44.515625 18.52001953 C-47.73361137 19.07575731 -49.73549701 19.10669028 -52.7890625 17.875 C-55.26444596 15.77573488 -56.73520345 13.79681036 -58.375 11 C-58.89835937 10.13375 -59.42171875 9.2675 -59.9609375 8.375 C-61 6 -61 6 -60 3 C-59.37472412 2.98541748 -58.74944824 2.97083496 -58.10522461 2.95581055 C-42.96689712 2.56884038 -28.01669024 1.57556295 -12.97045898 -0.0715332 C-11.71305908 -0.20519287 -10.45565918 -0.33885254 -9.16015625 -0.4765625 C-7.48385132 -0.663396 -7.48385132 -0.663396 -5.77368164 -0.85400391 C-3 -1 -3 -1 0 0 Z M0 13 C1.32 14.32 2.64 15.64 4 17 C5.32 15.35 6.64 13.7 8 12 C4.59745511 10.7848054 3.06748874 11.13759612 0 13 Z " fill="#FE0000" transform="translate(103,110)"/>
<path d="M0 0 C0.66209473 -0.00095673 1.32418945 -0.00191345 2.00634766 -0.00289917 C3.40852961 -0.00358076 4.8107147 -0.00172792 6.21289062 0.00244141 C8.36595713 0.00779004 10.51881502 0.0024958 12.671875 -0.00390625 C14.03125046 -0.00324546 15.3906258 -0.00196429 16.75 0 C18.61785156 0.00169189 18.61785156 0.00169189 20.5234375 0.00341797 C23.375 0.1328125 23.375 0.1328125 24.375 1.1328125 C24.51104947 4.19590261 24.58238733 7.23768478 24.61206055 10.30249023 C24.62517273 11.26502716 24.63828491 12.22756409 24.65179443 13.2192688 C24.69375917 16.4182733 24.72816305 19.61730317 24.76171875 22.81640625 C24.7873566 25.02979192 24.81314065 27.2431759 24.83906555 29.45655823 C24.89211979 34.10292499 24.94103584 38.74931534 24.98754883 43.39575195 C25.04794714 49.3627795 25.12215389 55.32954746 25.19992352 61.29637051 C25.25740111 65.86950835 25.30575736 70.44270906 25.351511 75.01597786 C25.37498568 77.21652999 25.40175936 79.4170494 25.43182945 81.61752129 C25.47280112 84.689585 25.50109627 87.76151107 25.52612305 90.83374023 C25.54109329 91.75070175 25.55606354 92.66766327 25.57148743 93.6124115 C25.58248502 95.7868373 25.48883021 97.96134038 25.375 100.1328125 C23.375 102.1328125 23.375 102.1328125 20.40991211 102.37573242 C19.16991455 102.37162354 17.92991699 102.36751465 16.65234375 102.36328125 C15.99166397 102.36282303 15.33098419 102.36236481 14.65028381 102.3618927 C13.25406091 102.35887171 11.85784133 102.35098992 10.46166992 102.33862305 C8.31742502 102.32035446 6.17361151 102.31811344 4.02929688 102.31835938 C-6.47756788 102.28024462 -6.47756788 102.28024462 -7.625 101.1328125 C-7.72567034 98.03310486 -7.761143 94.95563579 -7.75439453 91.85546875 C-7.75614685 90.88157196 -7.75789917 89.90767517 -7.75970459 88.90426636 C-7.76412499 85.66793056 -7.76118445 82.4316489 -7.7578125 79.1953125 C-7.75848549 76.95711252 -7.75945546 74.71891262 -7.76071167 72.48071289 C-7.7621889 67.78303331 -7.76003329 63.0853727 -7.75537109 58.38769531 C-7.7496738 52.35120636 -7.75295267 46.31476186 -7.75894356 40.27827454 C-7.7625485 35.65449689 -7.76141089 31.03072986 -7.75881577 26.4069519 C-7.75814631 24.18049108 -7.75897556 21.9540293 -7.76129532 19.72756958 C-7.76382074 16.62173895 -7.7599828 13.5159814 -7.75439453 10.41015625 C-7.75641876 9.48024872 -7.75844299 8.55034119 -7.76052856 7.59225464 C-7.73504226 -0.0120406 -7.49122931 0.00678553 0 0 Z M-4.625 3.1328125 C-4.625 34.8128125 -4.625 66.4928125 -4.625 99.1328125 C3.955 99.1328125 12.535 99.1328125 21.375 99.1328125 C22.05545712 95.73052689 22.498502 93.38747286 22.45729065 90.076828 C22.45025116 89.30426666 22.44321167 88.53170532 22.43595886 87.73573303 C22.42301285 86.90279221 22.41006683 86.06985138 22.39672852 85.21166992 C22.38712097 84.32336487 22.37751343 83.43505981 22.36761475 82.51983643 C22.3347138 79.59256847 22.29434764 76.66545393 22.25390625 73.73828125 C22.22959643 71.70519039 22.2057533 69.6720939 22.18235779 67.63899231 C22.11960265 62.29437841 22.05051175 56.94986449 21.98010254 51.60534668 C21.90934165 46.14905338 21.84457111 40.69268933 21.77929688 35.23632812 C21.65039499 24.53507635 21.51424626 13.83393468 21.375 3.1328125 C12.795 3.1328125 4.215 3.1328125 -4.625 3.1328125 Z " fill="#FFFFFF" transform="translate(256.625,132.8671875)"/>
<path d="M0 0 C4.4947036 1.95333735 7.11301365 4.80811209 10 8.6875 C11.80245936 14.65814663 12.34551601 21.19497567 9.375 26.875 C6.47106819 30.6959629 3.62929044 33.86064081 -0.875 35.8125 C-7.50218725 36.39725182 -12.08164461 36.39757439 -18 33 C-21.87529673 29.30799433 -24.75280666 26.02811843 -25.203125 20.51171875 C-25.29566383 14.93625452 -25.35576823 10.69807552 -22 6 C-15.25502063 -0.60108647 -9.24926141 -1.06371571 0 0 Z M-19.8125 9.0625 C-22.24231423 13.02693374 -22.30894303 16.44309033 -22 21 C-19.91814936 26.30871914 -17.4436655 29.8337051 -12.25 32.3125 C-8.20170072 33.168871 -4.96895861 33.21999925 -1 32 C3.53495989 29.00521517 6.15493318 26.12518561 8 21 C8.63379122 16.02021185 7.93260318 12.71380491 5.25 8.578125 C2.55779875 5.17922092 -0.07241495 3.30452077 -4.3984375 2.62109375 C-11.16863974 2.30596422 -15.24563259 3.86571985 -19.8125 9.0625 Z " fill="#FFFFFF" transform="translate(272,89)"/>
<path d="M0 0 C-3 2 -3 2 -5 2.625 C-8.29437232 4.88988097 -9.09445033 8.27652275 -10 12 C-10.50034913 15.66120852 -10.80333109 19.31076247 -11 23 C-14.3 23 -17.6 23 -21 23 C-21.30756866 17.15619553 -21.0261402 13.20117846 -18 8 C-12.24840444 1.88206078 -8.40300028 -0.19097728 0 0 Z " fill="#F20000" transform="translate(122,24)"/>
<path d="M0 0 C-1.30193379 5.7863724 -4.49465931 10.21695842 -9 14 C-10.65 14.33 -12.3 14.66 -14 15 C-15.98 11.7 -17.96 8.4 -20 5 C-17.26850337 2.26850337 -14.88759316 2.14942146 -11.125 1.375 C-9.89007813 1.11460938 -8.65515625 0.85421875 -7.3828125 0.5859375 C-4 0 -4 0 0 0 Z M-15 7 C-13.68 8.32 -12.36 9.64 -11 11 C-9.68 9.35 -8.36 7.7 -7 6 C-10.40254489 4.7848054 -11.93251126 5.13759612 -15 7 Z " fill="#FFFFFF" transform="translate(118,116)"/>
<path d="M0 0 C3.46941546 0.45822468 6.67395049 0.89131683 10 2 C9.34 4.31 8.68 6.62 8 9 C6.65826597 8.07456291 5.32679841 7.13422595 4 6.1875 C3.2575 5.66542969 2.515 5.14335937 1.75 4.60546875 C1.1725 4.07566406 0.595 3.54585937 0 3 C0 2.01 0 1.02 0 0 Z " fill="#FC0000" transform="translate(52,196)"/>
</svg>
