<?xml version="1.0" encoding="UTF-8"?>
<svg version="1.1" xmlns="http://www.w3.org/2000/svg" width="292" height="276">
<path d="M0 0 C1.47975815 -0.00639748 1.47975815 -0.00639748 2.9894104 -0.01292419 C4.62708878 -0.01224442 4.62708878 -0.01224442 6.29785156 -0.0115509 C8.01275284 -0.01658882 8.01275284 -0.01658882 9.76229858 -0.02172852 C13.57103544 -0.03128372 17.37972844 -0.03318483 21.18847656 -0.03425598 C23.16735914 -0.03665664 25.14624173 -0.03905898 27.12512398 -0.0417164 C33.36662235 -0.04987701 39.60810629 -0.05229973 45.84960938 -0.05158997 C52.2505392 -0.05099338 58.65138359 -0.06145679 65.05229187 -0.07733363 C70.56676116 -0.09051573 76.08120299 -0.09576922 81.59568787 -0.09513456 C84.87986647 -0.09488204 88.16395379 -0.09854237 91.44812012 -0.10831261 C122.04581916 -0.19071417 150.70942677 1.57594858 174.43847656 23.13371277 C175.08300781 23.68543152 175.72753906 24.23715027 176.39160156 24.80558777 C185.79537318 33.36217275 190.88156115 45.1808226 194.43847656 57.13371277 C194.98761719 58.90488464 194.98761719 58.90488464 195.54785156 60.71183777 C200.89511517 82.81227395 195.96905464 106.96982529 184.43847656 126.13371277 C182.31751142 129.37171955 180.03930737 132.27056641 177.43847656 135.13371277 C176.79652344 135.86718933 176.15457031 136.60066589 175.49316406 137.35636902 C167.50484691 145.94896847 157.13422636 152.40290036 146.43847656 157.13371277 C145.77847656 157.13371277 145.11847656 157.13371277 144.43847656 157.13371277 C156.78697126 183.35887521 169.18622316 207.04363433 189.43847656 228.13371277 C190.24961914 228.97881409 190.24961914 228.97881409 191.07714844 229.84098816 C205.92893419 245.0391773 225.42107839 256.68708613 245.30957031 263.95011902 C253.26377777 266.95901397 253.26377777 266.95901397 255.43847656 269.13371277 C255.56347656 272.13371277 255.56347656 272.13371277 255.43847656 275.13371277 C253.67227753 276.8999118 251.20846312 276.30664472 248.81347656 276.32121277 C227.4573586 276.06697327 206.56969614 270.46339945 187.43847656 261.13371277 C186.43300781 260.68640808 185.42753906 260.23910339 184.39160156 259.77824402 C170.05112097 253.16999553 157.6700336 243.09049165 146.43847656 232.13371277 C145.76042969 231.51754089 145.08238281 230.90136902 144.38378906 230.26652527 C124.45504764 211.66085382 108.2576494 183.4464548 98.43847656 158.13371277 C98.43847656 157.47371277 98.43847656 156.81371277 98.43847656 156.13371277 C97.65601563 155.92875183 96.87355469 155.72379089 96.06738281 155.51261902 C94.54951172 155.10849792 94.54951172 155.10849792 93.00097656 154.69621277 C91.99164063 154.42937683 90.98230469 154.16254089 89.94238281 153.88761902 C87.43847656 153.13371277 87.43847656 153.13371277 86.43847656 152.13371277 C86.25097656 149.19621277 86.25097656 149.19621277 86.43847656 146.13371277 C89.17088466 143.40130467 90.80269515 143.87103516 94.62597656 143.75871277 C112.94570444 142.6359511 130.00845597 135.93587849 142.43847656 122.13371277 C151.46789119 110.3415668 155.83139316 97.27676111 155.68847656 82.50871277 C155.69621094 81.70175964 155.70394531 80.89480652 155.71191406 80.06340027 C155.69561767 75.04411232 155.0455638 70.89120119 153.43847656 66.13371277 C152.92285156 67.06183777 152.40722656 67.98996277 151.87597656 68.94621277 C149.80464898 72.67460241 146.28440112 73.79208806 142.43847656 75.13371277 C140.19882154 75.73608444 137.94776906 76.29728182 135.68847656 76.82121277 C128.4766965 78.58148862 121.85044259 81.34506899 115.13671875 84.49186707 C109.95995778 86.82781693 106.13129873 87.70861907 100.43847656 87.13371277 C98.43847656 85.13371277 98.43847656 85.13371277 98.00878906 82.91886902 C98.61709273 78.97595527 100.82836266 76.54581881 103.31347656 73.57121277 C106.04516406 70.22355652 108.5892663 67.06394766 110.43847656 63.13371277 C109.24960342 63.2364727 109.24960342 63.2364727 108.03671265 63.34130859 C98.77543979 64.14149466 89.51399342 64.9396514 80.25242233 65.73637772 C78.63174408 65.875813 77.01106992 66.01529582 75.39039993 66.15482712 C54.54692651 67.94924391 33.70388504 69.73523769 12.84033203 71.28337097 C12.14656967 71.33590027 11.45280731 71.38842957 10.73802185 71.44255066 C8.95338114 71.57750585 7.16847578 71.70894979 5.38354492 71.8400116 C2.64687456 72.11292998 0.08304502 72.37260314 -2.56152344 73.13371277 C-4.05701758 75.81094568 -4.05701758 75.81094568 -4.99902344 79.13371277 C-7.60401287 86.51857377 -10.10741231 92.9178679 -16.87402344 97.25871277 C-21.40620517 98.33414572 -25.08665759 98.51899019 -29.56152344 97.13371277 C-33.59518666 93.95827576 -36.13239112 90.75389567 -36.96777344 85.65324402 C-37.26550099 77.05636108 -34.51115639 72.37213609 -28.74511719 66.18449402 C-28.14828125 65.54898621 -27.55144531 64.91347839 -26.93652344 64.25871277 C-22.86666655 59.77558123 -21.35473951 54.81931255 -19.56152344 49.13371277 C-17.74930624 44.32149557 -17.74930624 44.32149557 -16.56152344 43.13371277 C-13.31152344 42.69621277 -13.31152344 42.69621277 -9.56152344 43.13371277 C-6.28706331 46.26580506 -4.4620256 48.72700006 -3.56152344 53.13371277 C3.12815003 52.72833573 9.81757136 52.31897483 16.50683594 51.90690613 C18.7802179 51.76732669 21.05365506 51.62864324 23.32714844 51.4908905 C26.60399223 51.29218522 29.88062084 51.09020772 33.15722656 50.88761902 C34.67020325 50.79692894 34.67020325 50.79692894 36.21374512 50.70440674 C41.65832508 50.36433459 47.03372334 49.87658601 52.43847656 49.13371277 C51.77847656 48.47371277 51.11847656 47.81371277 50.43847656 47.13371277 C50.20631804 44.59172383 50.07143842 42.11765803 50.00097656 39.57121277 C49.79100128 30.42290808 49.79100128 30.42290808 46.43847656 22.13371277 C36.12724259 17.58627402 26.75128853 16.79262094 15.56347656 17.13371277 C13.0039648 17.21034486 10.44400148 17.27340797 7.88378906 17.32121277 C6.20567139 17.3734198 6.20567139 17.3734198 4.49365234 17.42668152 C1.02669505 17.09422597 -0.77902519 16.18589488 -3.56152344 14.13371277 C-5.54778619 11.24080756 -5.81204745 8.91253319 -5.74902344 5.44621277 C-5.74257813 4.65859558 -5.73613281 3.87097839 -5.72949219 3.05949402 C-5.40203666 -0.69482163 -3.27373128 0.00636517 0 0 Z M79.43847656 28.13371277 C76.82422321 32.92651059 76.27519423 37.00536772 75.86816406 42.41886902 C75.78550293 43.49144958 75.7028418 44.56403015 75.61767578 45.66911316 C75.55854004 46.48243103 75.4994043 47.2957489 75.43847656 48.13371277 C82.76309021 47.86744102 90.08612641 47.5749735 97.40869141 47.25724792 C99.83165256 47.15845515 102.25268254 47.08135649 104.67675781 47.02043152 C111.06351795 46.75272301 114.92302804 45.59947861 120.33300781 42.23918152 C124.08526164 40.26907422 127.36364841 40.03167243 131.43847656 41.13371277 C135.04031435 43.15745278 138.21460811 45.56160111 141.43847656 48.13371277 C142.42847656 48.79371277 143.41847656 49.45371277 144.43847656 50.13371277 C140.41707711 40.38290013 126.74366063 33.90247349 117.58300781 29.87980652 C106.57699301 25.67299409 89.94502551 20.82480915 79.43847656 28.13371277 Z M65.43847656 48.13371277 C69.43847656 49.13371277 69.43847656 49.13371277 69.43847656 49.13371277 Z " fill="#000000" transform="translate(36.5615234375,-0.1337127685546875)"/>
<path d="M0 0 C1.47975815 -0.00639748 1.47975815 -0.00639748 2.9894104 -0.01292419 C4.62708878 -0.01224442 4.62708878 -0.01224442 6.29785156 -0.0115509 C8.01275284 -0.01658882 8.01275284 -0.01658882 9.76229858 -0.02172852 C13.57103544 -0.03128372 17.37972844 -0.03318483 21.18847656 -0.03425598 C23.16735914 -0.03665664 25.14624173 -0.03905898 27.12512398 -0.0417164 C33.36662235 -0.04987701 39.60810629 -0.05229973 45.84960938 -0.05158997 C52.2505392 -0.05099338 58.65138359 -0.06145679 65.05229187 -0.07733363 C70.56676116 -0.09051573 76.08120299 -0.09576922 81.59568787 -0.09513456 C84.87986647 -0.09488204 88.16395379 -0.09854237 91.44812012 -0.10831261 C122.04581916 -0.19071417 150.70942677 1.57594858 174.43847656 23.13371277 C175.08300781 23.68543152 175.72753906 24.23715027 176.39160156 24.80558777 C185.79537318 33.36217275 190.88156115 45.1808226 194.43847656 57.13371277 C194.98761719 58.90488464 194.98761719 58.90488464 195.54785156 60.71183777 C200.89511517 82.81227395 195.96905464 106.96982529 184.43847656 126.13371277 C182.31751142 129.37171955 180.03930737 132.27056641 177.43847656 135.13371277 C176.79652344 135.86718933 176.15457031 136.60066589 175.49316406 137.35636902 C167.50484691 145.94896847 157.13422636 152.40290036 146.43847656 157.13371277 C145.77847656 157.13371277 145.11847656 157.13371277 144.43847656 157.13371277 C156.78697126 183.35887521 169.18622316 207.04363433 189.43847656 228.13371277 C190.24961914 228.97881409 190.24961914 228.97881409 191.07714844 229.84098816 C205.92893419 245.0391773 225.42107839 256.68708613 245.30957031 263.95011902 C253.26377777 266.95901397 253.26377777 266.95901397 255.43847656 269.13371277 C255.56347656 272.13371277 255.56347656 272.13371277 255.43847656 275.13371277 C253.67227753 276.8999118 251.20846312 276.30664472 248.81347656 276.32121277 C227.4573586 276.06697327 206.56969614 270.46339945 187.43847656 261.13371277 C186.43300781 260.68640808 185.42753906 260.23910339 184.39160156 259.77824402 C170.05112097 253.16999553 157.6700336 243.09049165 146.43847656 232.13371277 C145.76042969 231.51754089 145.08238281 230.90136902 144.38378906 230.26652527 C124.45504764 211.66085382 108.2576494 183.4464548 98.43847656 158.13371277 C98.43847656 157.47371277 98.43847656 156.81371277 98.43847656 156.13371277 C97.65601563 155.92875183 96.87355469 155.72379089 96.06738281 155.51261902 C94.54951172 155.10849792 94.54951172 155.10849792 93.00097656 154.69621277 C91.99164063 154.42937683 90.98230469 154.16254089 89.94238281 153.88761902 C87.43847656 153.13371277 87.43847656 153.13371277 86.43847656 152.13371277 C86.25097656 149.19621277 86.25097656 149.19621277 86.43847656 146.13371277 C89.17088466 143.40130467 90.80269515 143.87103516 94.62597656 143.75871277 C112.94570444 142.6359511 130.00845597 135.93587849 142.43847656 122.13371277 C151.46789119 110.3415668 155.83139316 97.27676111 155.68847656 82.50871277 C155.69621094 81.70175964 155.70394531 80.89480652 155.71191406 80.06340027 C155.69561767 75.04411232 155.0455638 70.89120119 153.43847656 66.13371277 C152.92285156 67.06183777 152.40722656 67.98996277 151.87597656 68.94621277 C149.80464898 72.67460241 146.28440112 73.79208806 142.43847656 75.13371277 C140.19882154 75.73608444 137.94776906 76.29728182 135.68847656 76.82121277 C128.4766965 78.58148862 121.85044259 81.34506899 115.13671875 84.49186707 C109.95995778 86.82781693 106.13129873 87.70861907 100.43847656 87.13371277 C98.43847656 85.13371277 98.43847656 85.13371277 98.00878906 82.91886902 C98.61709273 78.97595527 100.82836266 76.54581881 103.31347656 73.57121277 C106.04516406 70.22355652 108.5892663 67.06394766 110.43847656 63.13371277 C109.24960342 63.2364727 109.24960342 63.2364727 108.03671265 63.34130859 C98.77543979 64.14149466 89.51399342 64.9396514 80.25242233 65.73637772 C78.63174408 65.875813 77.01106992 66.01529582 75.39039993 66.15482712 C54.54692651 67.94924391 33.70388504 69.73523769 12.84033203 71.28337097 C12.14656967 71.33590027 11.45280731 71.38842957 10.73802185 71.44255066 C8.95338114 71.57750585 7.16847578 71.70894979 5.38354492 71.8400116 C2.64687456 72.11292998 0.08304502 72.37260314 -2.56152344 73.13371277 C-4.05701758 75.81094568 -4.05701758 75.81094568 -4.99902344 79.13371277 C-7.60401287 86.51857377 -10.10741231 92.9178679 -16.87402344 97.25871277 C-21.40620517 98.33414572 -25.08665759 98.51899019 -29.56152344 97.13371277 C-33.59518666 93.95827576 -36.13239112 90.75389567 -36.96777344 85.65324402 C-37.26550099 77.05636108 -34.51115639 72.37213609 -28.74511719 66.18449402 C-28.14828125 65.54898621 -27.55144531 64.91347839 -26.93652344 64.25871277 C-22.86666655 59.77558123 -21.35473951 54.81931255 -19.56152344 49.13371277 C-17.74930624 44.32149557 -17.74930624 44.32149557 -16.56152344 43.13371277 C-13.31152344 42.69621277 -13.31152344 42.69621277 -9.56152344 43.13371277 C-6.28706331 46.26580506 -4.4620256 48.72700006 -3.56152344 53.13371277 C3.12815003 52.72833573 9.81757136 52.31897483 16.50683594 51.90690613 C18.7802179 51.76732669 21.05365506 51.62864324 23.32714844 51.4908905 C26.60399223 51.29218522 29.88062084 51.09020772 33.15722656 50.88761902 C34.67020325 50.79692894 34.67020325 50.79692894 36.21374512 50.70440674 C41.65832508 50.36433459 47.03372334 49.87658601 52.43847656 49.13371277 C51.77847656 48.47371277 51.11847656 47.81371277 50.43847656 47.13371277 C50.20631804 44.59172383 50.07143842 42.11765803 50.00097656 39.57121277 C49.79100128 30.42290808 49.79100128 30.42290808 46.43847656 22.13371277 C36.12724259 17.58627402 26.75128853 16.79262094 15.56347656 17.13371277 C13.0039648 17.21034486 10.44400148 17.27340797 7.88378906 17.32121277 C6.20567139 17.3734198 6.20567139 17.3734198 4.49365234 17.42668152 C1.02669505 17.09422597 -0.77902519 16.18589488 -3.56152344 14.13371277 C-5.54778619 11.24080756 -5.81204745 8.91253319 -5.74902344 5.44621277 C-5.74257813 4.65859558 -5.73613281 3.87097839 -5.72949219 3.05949402 C-5.40203666 -0.69482163 -3.27373128 0.00636517 0 0 Z M-2.56152344 3.13371277 C-2.14405271 7.7935985 -2.14405271 7.7935985 -0.37402344 12.00871277 C4.48620434 15.02540587 10.70312488 14.14497907 16.19726562 14.01725769 C39.24847022 13.52155118 39.24847022 13.52155118 48.62597656 20.50871277 C52.30396837 25.83545953 52.76715625 31.17868786 53.00097656 37.44621277 C52.77876198 42.16801587 52.77876198 42.16801587 54.43847656 46.13371277 C60.85067806 46.33727472 67.07218696 45.87799715 73.43847656 45.13371277 C73.62023437 43.57910339 73.62023437 43.57910339 73.80566406 41.99308777 C73.97454837 40.62324839 74.14384067 39.25345927 74.31347656 37.88371277 C74.39210938 37.20179871 74.47074219 36.51988464 74.55175781 35.81730652 C75.46343017 28.59405627 75.46343017 28.59405627 77.43847656 26.13371277 C82.39947519 23.40237644 86.70727533 22.61215847 92.37597656 22.69621277 C93.47969604 22.70866028 93.47969604 22.70866028 94.60571289 22.72135925 C114.32759978 23.31324756 132.92576284 32.29265071 146.62988281 46.38761902 C156.14621199 57.87709636 160.11990524 72.30656827 159.19238281 87.04386902 C157.38041403 105.53438874 150.51994017 121.08537572 136.02441406 133.14152527 C122.19666692 143.28187318 107.32614016 146.39946653 90.43847656 147.13371277 C90.10847656 148.12371277 89.77847656 149.11371277 89.43847656 150.13371277 C90.05335937 150.31547058 90.66824219 150.49722839 91.30175781 150.68449402 C92.11 150.93586121 92.91824219 151.18722839 93.75097656 151.44621277 C94.55148438 151.68984558 95.35199219 151.93347839 96.17675781 152.18449402 C100.13690613 153.84652518 101.76280815 156.40841563 103.46191406 160.24699402 C103.83638672 161.07191345 104.21085937 161.89683289 104.59667969 162.74674988 C104.99822266 163.63757263 105.39976562 164.52839539 105.81347656 165.44621277 C117.39854338 190.40751585 133.15314376 217.02948464 154.43847656 235.13371277 C155.09847656 235.13371277 155.75847656 235.13371277 156.43847656 235.13371277 C156.43847656 235.79371277 156.43847656 236.45371277 156.43847656 237.13371277 C158.63077392 238.93485333 160.82319738 240.60881067 163.12597656 242.25871277 C163.80861572 242.75081238 164.49125488 243.24291199 165.19458008 243.74992371 C190.56079471 261.85224379 220.95858681 273.64145293 252.43847656 273.13371277 C251.80003835 270.08762746 251.80003835 270.08762746 249.7746582 269.217453 C249.05656982 268.96165466 248.33848145 268.70585632 247.59863281 268.44230652 C246.79200195 268.14292175 245.98537109 267.84353699 245.15429688 267.53507996 C244.27870117 267.21700378 243.40310547 266.89892761 242.50097656 266.57121277 C221.58070499 258.54915374 203.62412948 246.60445169 187.43847656 231.13371277 C186.375 230.1649823 186.375 230.1649823 185.29003906 229.17668152 C168.60166343 213.42213196 157.70396332 193.17397552 147.81347656 172.75871277 C147.29197021 171.68234558 146.77046387 170.60597839 146.2331543 169.49699402 C145.75177002 168.48250183 145.27038574 167.46800964 144.77441406 166.42277527 C144.34692871 165.52252625 143.91944336 164.62227722 143.47900391 163.69474792 C142.45326747 161.17011743 141.87638142 158.81731455 141.43847656 156.13371277 C141.93138184 155.87267761 142.42428711 155.61164246 142.93212891 155.34269714 C152.37797926 150.30784949 161.48857978 145.4026128 169.43847656 138.13371277 C170.14101562 137.51109558 170.84355469 136.88847839 171.56738281 136.24699402 C185.55660879 123.16029875 192.8608283 104.12018542 193.82519531 85.23136902 C194.41860148 64.46051397 189.98786999 44.79352957 175.43847656 29.13371277 C158.00716372 11.2880264 135.20391707 3.82003882 110.5848484 3.04372978 C107.56985296 3.01196189 104.5564037 3.00981528 101.54125977 3.02018738 C100.40823929 3.02004135 99.27521881 3.01989532 98.10786438 3.01974487 C94.401642 3.02043575 90.6954713 3.02818914 86.98925781 3.03605652 C84.40423103 3.03792363 81.8192039 3.03934615 79.23417664 3.04034424 C73.15007017 3.0437587 67.06598469 3.05162208 60.98188609 3.06169373 C54.04827091 3.07291946 47.1146548 3.07838151 40.18103278 3.08338916 C25.9335043 3.09380671 11.68599108 3.11136564 -2.56152344 3.13371277 Z M79.43847656 28.13371277 C76.82422321 32.92651059 76.27519423 37.00536772 75.86816406 42.41886902 C75.78550293 43.49144958 75.7028418 44.56403015 75.61767578 45.66911316 C75.55854004 46.48243103 75.4994043 47.2957489 75.43847656 48.13371277 C82.76309021 47.86744102 90.08612641 47.5749735 97.40869141 47.25724792 C99.83165256 47.15845515 102.25268254 47.08135649 104.67675781 47.02043152 C111.06351795 46.75272301 114.92302804 45.59947861 120.33300781 42.23918152 C124.08526164 40.26907422 127.36364841 40.03167243 131.43847656 41.13371277 C135.04031435 43.15745278 138.21460811 45.56160111 141.43847656 48.13371277 C142.42847656 48.79371277 143.41847656 49.45371277 144.43847656 50.13371277 C140.41707711 40.38290013 126.74366063 33.90247349 117.58300781 29.87980652 C106.57699301 25.67299409 89.94502551 20.82480915 79.43847656 28.13371277 Z M65.43847656 48.13371277 C69.43847656 49.13371277 69.43847656 49.13371277 69.43847656 49.13371277 Z " fill="#FFFFFF" transform="translate(36.5615234375,-0.1337127685546875)"/>
<path d="M0 0 C7.28836468 2.41524755 13.76887986 7.65331978 18 14 C18.67681327 21.10653931 18.67681327 21.10653931 16.42578125 24.078125 C13.44464908 26.43998816 10.36669958 27.60401168 6.8125 28.8125 C5.38461102 29.32458198 3.95755463 29.83899028 2.53125 30.35546875 C1.79132813 30.62149902 1.05140625 30.8875293 0.2890625 31.16162109 C-3.56719423 32.57399157 -7.38033906 34.08591724 -11.1875 35.625 C-11.89350342 35.90190674 -12.59950684 36.17881348 -13.3269043 36.46411133 C-13.99633057 36.73634521 -14.66575684 37.0085791 -15.35546875 37.2890625 C-15.93965576 37.52318848 -16.52384277 37.75731445 -17.12573242 37.99853516 C-19.80545669 39.43037428 -21.80687915 40.87312743 -24 43 C-24.73297212 46.07134516 -24.73297212 46.07134516 -24.59594727 49.5534668 C-24.6000058 50.20283707 -24.60406433 50.85220734 -24.60824585 51.52125549 C-24.61375502 52.92788904 -24.60777681 54.33460448 -24.59158516 55.74115562 C-24.56611158 57.97505953 -24.57098023 60.20712249 -24.58348083 62.44111633 C-24.60422402 67.19011343 -24.58458204 71.9385406 -24.5625 76.6875 C-24.5413306 82.17636387 -24.53699405 87.66463031 -24.56300163 93.15348244 C-24.56633682 95.34117497 -24.54522386 97.52770045 -24.52259827 99.71525574 C-24.50729725 107.28897877 -25.0283778 113.41394651 -29 120 C-29.46921875 120.79792969 -29.9384375 121.59585938 -30.421875 122.41796875 C-35.39949573 129.04991637 -41.66264839 134.9056945 -50.05859375 136.35546875 C-53.39979901 136.65409249 -55.9271412 136.67456573 -58.8203125 134.85546875 C-61.56726947 132.22988895 -63.75212403 129.35111607 -65.94140625 126.25 C-71.22706554 118.7741504 -76.72636899 113.60008895 -84.05859375 108.1796875 C-87 106 -87 106 -89 104 C-89.1875 100.4375 -89.1875 100.4375 -89 97 C-88 96 -88 96 -84.25 95.625 C-78.83793653 95.65073089 -74.56364618 97.57667999 -69.69921875 99.80859375 C-64.52960019 101.47357122 -59.40054854 101.7092564 -54 102 C-51.69349074 85.65609173 -50.70537657 69.61277982 -50.75 53.125 C-50.75104736 52.2674411 -50.75209473 51.4098822 -50.75317383 50.52633667 C-50.75954982 48.061692 -50.77549276 45.59736933 -50.796875 43.1328125 C-50.80343109 42.03280159 -50.80343109 42.03280159 -50.81011963 40.91056824 C-50.86593534 36.8455313 -51.21967948 32.98995552 -52 29 C-52.95084473 29.21934204 -52.95084473 29.21934204 -53.92089844 29.44311523 C-84.10305311 36.3527785 -84.10305311 36.3527785 -89.6015625 33.78515625 C-92.17120979 31.87256861 -93.55735551 30.14127685 -95.25 27.4375 C-95.75015625 26.65246094 -96.2503125 25.86742188 -96.765625 25.05859375 C-98.92513609 21.45713063 -99.2649689 19.23950238 -99 15 C-97 13 -97 13 -95.14794922 12.76049805 C-94.37467285 12.76090088 -93.60139648 12.76130371 -92.8046875 12.76171875 C-91.88413574 12.74890869 -90.96358398 12.73609863 -90.01513672 12.72290039 C-88.46076904 12.7053772 -88.46076904 12.7053772 -86.875 12.6875 C-73.13870163 12.35476239 -59.53457063 10.99088912 -45.875 9.5625 C-44.80699158 9.45304047 -43.73898315 9.34358093 -42.63861084 9.23080444 C-39.54732022 8.91242552 -36.45714027 8.58499518 -33.3671875 8.25390625 C-31.97777954 8.11008011 -31.97777954 8.11008011 -30.56030273 7.96334839 C-20.29908094 7.0925222 -20.29908094 7.0925222 -11.5 2.375 C-7.83341161 -0.42690542 -4.50085424 -0.91572082 0 0 Z M-35 26 C-33.68 27.32 -32.36 28.64 -31 30 C-29.68 28.35 -28.36 26.7 -27 25 C-30.40254489 23.7848054 -31.93251126 24.13759612 -35 26 Z " fill="#B50000" transform="translate(137,95)"/>
<path d="M0 0 C5.00720387 1.7882871 8.50392985 4.81070153 12.5 8.25 C13.17933594 8.7965625 13.85867187 9.343125 14.55859375 9.90625 C17.70091967 12.46714763 19.99090181 14.3925978 21.5 18.25 C21.28291598 24.43689445 21.28291598 24.43689445 18.98046875 26.828125 C15.468541 28.84126154 11.86213719 29.54290775 7.9375 30.4375 C-0.21114274 32.40299381 -7.68115249 35.18996997 -15.26782227 38.74682617 C-22.12892711 41.86956087 -22.12892711 41.86956087 -26.5 40.25 C-24.6425241 37.42663663 -22.78031109 34.6322424 -20.78125 31.90625 C-17.0698947 26.8109995 -14.39518148 22.26998824 -12.5 16.25 C-13.38807343 16.37180634 -14.27614685 16.49361267 -15.19113159 16.61911011 C-27.2677426 18.20808024 -39.36767736 19.22765015 -51.5078125 20.1953125 C-53.69019458 20.37157836 -55.87255712 20.54808631 -58.05490112 20.724823 C-62.59469386 21.09171428 -67.13467044 21.4562075 -71.67480469 21.81884766 C-77.48761072 22.28326629 -83.29997226 22.75300325 -89.11221504 23.22441292 C-93.60390654 23.58826629 -98.09578805 23.9497266 -102.58773422 24.31042099 C-104.73196485 24.48281197 -106.87614335 24.65585271 -109.02026749 24.82956314 C-112.00828158 25.07120404 -114.99652939 25.30971434 -117.98486328 25.54736328 C-118.86387802 25.6190271 -119.74289276 25.69069092 -120.64854431 25.76452637 C-124.94599006 26.10292625 -129.18468916 26.32878671 -133.5 26.25 C-133.73783203 27.28447266 -133.73783203 27.28447266 -133.98046875 28.33984375 C-136.15488059 37.09755773 -139.15385178 45.5164209 -146.5 51.25 C-150.21468412 52.51457332 -151.95915458 52.43028181 -155.6875 51.1875 C-159.11612206 48.82556036 -160.14288485 47.17055488 -161.5 43.25 C-162.31192497 38.46866406 -161.48845578 35.78216916 -158.9375 31.8125 C-156.77334915 28.77859585 -154.43417947 26.07789149 -151.875 23.375 C-147.80514311 18.89186846 -146.29321607 13.93559978 -144.5 8.25 C-143.84727481 6.57782416 -143.18466964 4.90935219 -142.5 3.25 C-140.63859558 3.49835205 -140.63859558 3.49835205 -138.5 4.25 C-137.31513977 6.07733154 -137.31513977 6.07733154 -136.2824707 8.27636719 C-134.57031644 11.29739578 -134.57031644 11.29739578 -131.65512085 12.9263916 C-129.38537667 13.08936851 -127.24909834 13.00832168 -124.98046875 12.828125 C-124.14557419 12.79398499 -123.31067963 12.75984497 -122.45048523 12.72467041 C-119.79659265 12.60594571 -117.15035047 12.4302553 -114.5 12.25 C-112.84732095 12.1643142 -111.19448599 12.08157931 -109.54150391 12.00195312 C-104.29377961 11.73173538 -99.05394705 11.37072377 -93.8125 11 C-91.85589144 10.86419294 -89.89926661 10.72862004 -87.94262695 10.59326172 C-84.82141645 10.37705172 -81.70027812 10.16000729 -78.57933044 9.94003296 C-71.46279471 9.44175314 -64.34448566 8.99189852 -57.22315979 8.56774902 C-52.12517523 8.26127079 -47.02842415 7.93669637 -41.93173218 7.60949707 C-39.45060413 7.4541068 -36.96899877 7.30614597 -34.48696899 7.16589355 C-30.99359476 6.96697795 -27.50299168 6.74039027 -24.01171875 6.5078125 C-22.9792099 6.45563568 -21.94670105 6.40345886 -20.88290405 6.34970093 C-14.77956062 5.91014506 -10.55593873 4.67726234 -5.40583801 1.32394409 C-3.5 0.25 -3.5 0.25 0 0 Z " fill="#FE0000" transform="translate(164.5,42.75)"/>
<path d="M0 0 C7.28836468 2.41524755 13.76887986 7.65331978 18 14 C18.67681327 21.10653931 18.67681327 21.10653931 16.42578125 24.078125 C13.44464908 26.43998816 10.36669958 27.60401168 6.8125 28.8125 C5.38461102 29.32458198 3.95755463 29.83899028 2.53125 30.35546875 C1.79132813 30.62149902 1.05140625 30.8875293 0.2890625 31.16162109 C-3.56719423 32.57399157 -7.38033906 34.08591724 -11.1875 35.625 C-11.89350342 35.90190674 -12.59950684 36.17881348 -13.3269043 36.46411133 C-13.99633057 36.73634521 -14.66575684 37.0085791 -15.35546875 37.2890625 C-15.93965576 37.52318848 -16.52384277 37.75731445 -17.12573242 37.99853516 C-19.80545669 39.43037428 -21.80687915 40.87312743 -24 43 C-24.73297212 46.07134516 -24.73297212 46.07134516 -24.59594727 49.5534668 C-24.6000058 50.20283707 -24.60406433 50.85220734 -24.60824585 51.52125549 C-24.61375502 52.92788904 -24.60777681 54.33460448 -24.59158516 55.74115562 C-24.56611158 57.97505953 -24.57098023 60.20712249 -24.58348083 62.44111633 C-24.60422402 67.19011343 -24.58458204 71.9385406 -24.5625 76.6875 C-24.5413306 82.17636387 -24.53699405 87.66463031 -24.56300163 93.15348244 C-24.56633682 95.34117497 -24.54522386 97.52770045 -24.52259827 99.71525574 C-24.50729725 107.28897877 -25.0283778 113.41394651 -29 120 C-29.46921875 120.79792969 -29.9384375 121.59585938 -30.421875 122.41796875 C-35.39949573 129.04991637 -41.66264839 134.9056945 -50.05859375 136.35546875 C-53.39979901 136.65409249 -55.9271412 136.67456573 -58.8203125 134.85546875 C-61.56726947 132.22988895 -63.75212403 129.35111607 -65.94140625 126.25 C-71.22706554 118.7741504 -76.72636899 113.60008895 -84.05859375 108.1796875 C-87 106 -87 106 -89 104 C-89.1875 100.4375 -89.1875 100.4375 -89 97 C-88 96 -88 96 -84.25 95.625 C-78.83793653 95.65073089 -74.56364618 97.57667999 -69.69921875 99.80859375 C-64.52960019 101.47357122 -59.40054854 101.7092564 -54 102 C-51.69349074 85.65609173 -50.70537657 69.61277982 -50.75 53.125 C-50.75104736 52.2674411 -50.75209473 51.4098822 -50.75317383 50.52633667 C-50.75954982 48.061692 -50.77549276 45.59736933 -50.796875 43.1328125 C-50.80343109 42.03280159 -50.80343109 42.03280159 -50.81011963 40.91056824 C-50.86593534 36.8455313 -51.21967948 32.98995552 -52 29 C-52.95084473 29.21934204 -52.95084473 29.21934204 -53.92089844 29.44311523 C-84.10305311 36.3527785 -84.10305311 36.3527785 -89.6015625 33.78515625 C-92.17120979 31.87256861 -93.55735551 30.14127685 -95.25 27.4375 C-95.75015625 26.65246094 -96.2503125 25.86742188 -96.765625 25.05859375 C-98.92513609 21.45713063 -99.2649689 19.23950238 -99 15 C-97 13 -97 13 -95.14794922 12.76049805 C-94.37467285 12.76090088 -93.60139648 12.76130371 -92.8046875 12.76171875 C-91.88413574 12.74890869 -90.96358398 12.73609863 -90.01513672 12.72290039 C-88.46076904 12.7053772 -88.46076904 12.7053772 -86.875 12.6875 C-73.13870163 12.35476239 -59.53457063 10.99088912 -45.875 9.5625 C-44.80699158 9.45304047 -43.73898315 9.34358093 -42.63861084 9.23080444 C-39.54732022 8.91242552 -36.45714027 8.58499518 -33.3671875 8.25390625 C-31.97777954 8.11008011 -31.97777954 8.11008011 -30.56030273 7.96334839 C-20.29908094 7.0925222 -20.29908094 7.0925222 -11.5 2.375 C-7.83341161 -0.42690542 -4.50085424 -0.91572082 0 0 Z M-9.734375 5.875 C-16.12504918 10.27118212 -23.25042519 10.55243627 -30.75 11.25 C-32.23922471 11.40595678 -33.72823903 11.56393507 -35.21704102 11.72387695 C-38.15207704 12.03485465 -41.08794954 12.33144957 -44.02587891 12.61376953 C-47.32691976 12.93458576 -50.6222049 13.28224999 -53.91796875 13.65234375 C-67.57629169 15.13961497 -81.27262285 15.59850972 -95 16 C-96.34787889 18.92702913 -96.34787889 18.92702913 -94.9609375 21.375 C-94.17589844 22.674375 -94.17589844 22.674375 -93.375 24 C-92.61316406 25.299375 -92.61316406 25.299375 -91.8359375 26.625 C-89.70836497 29.37726404 -88.22488845 30.67590417 -85 32 C-81.60709067 31.85283894 -81.60709067 31.85283894 -77.9375 30.9375 C-76.52995009 30.63801061 -75.12239789 30.338532 -73.71484375 30.0390625 C-72.96315918 29.87180664 -72.21147461 29.70455078 -71.43701172 29.53222656 C-67.87874655 28.75512597 -64.30583508 28.05661904 -60.73266602 27.35180664 C-56.81941468 26.57950501 -52.90987722 25.78918628 -49 25 C-48.15931254 30.85546153 -47.83992474 36.53770924 -47.83203125 42.44921875 C-47.82703865 43.78917656 -47.82703865 43.78917656 -47.82194519 45.15620422 C-47.81690426 47.04464203 -47.81453598 48.93308867 -47.81469727 50.8215332 C-47.81254068 53.63443844 -47.79443805 56.44693115 -47.77539062 59.25976562 C-47.74546041 68.70248816 -48.01756224 78.05102475 -48.88671875 87.45703125 C-48.96445023 88.31366867 -49.0421817 89.17030609 -49.12226868 90.05290222 C-49.61935096 94.9033071 -50.3618112 99.39617031 -52 104 C-57.48886795 106.74443398 -66.0811545 104.62383067 -71.640625 102.81640625 C-73.82922042 101.93447225 -76.0044786 101.01818292 -78.16015625 100.05859375 C-81.00876386 98.99673314 -82.99293849 98.78481578 -86 99 C-85.69046481 102.09535193 -84.97073546 103.0278897 -82.671875 105.21875 C-81.70765625 105.9715625 -80.7434375 106.724375 -79.75 107.5 C-78.79609375 108.2528125 -77.8421875 109.005625 -76.859375 109.78125 C-75.07433588 111.16636232 -73.27555526 112.5341528 -71.45703125 113.875 C-68.49360887 116.4379599 -66.24156072 119.35907023 -63.9375 122.5 C-59.87832546 128.12040314 -59.87832546 128.12040314 -55 133 C-47.99075089 133.23760166 -43.24682143 130.50265825 -38 126 C-30.40648133 118.03928991 -27.50220494 110.28194602 -27.7421875 99.4375 C-27.74952911 98.53609283 -27.75687073 97.63468567 -27.76443481 96.70596313 C-27.78104797 94.79001543 -27.8040506 92.87411389 -27.83300781 90.95831299 C-27.88939274 86.98604413 -27.90240546 83.01401578 -27.91778564 79.04141235 C-27.94241701 72.92494025 -27.98035987 66.80857534 -28.04394531 60.69238281 C-28.06777027 57.334829 -28.04414519 53.98221413 -28 50.625 C-28.0191748 49.70203125 -28.03834961 48.7790625 -28.05810547 47.828125 C-27.9775447 44.30782238 -27.81702822 41.97568619 -25.51269531 39.22387695 C-20.54013943 35.18445971 -14.73370766 33.04191191 -8.75 30.9375 C-6.89560286 30.25192516 -5.04143491 29.56573008 -3.1875 28.87890625 C-0.75484298 27.99314017 1.67905243 27.11296704 4.12109375 26.25341797 C5.83786107 25.64710643 7.54456402 25.01248869 9.25 24.375 C10.16265625 24.05273438 11.0753125 23.73046875 12.015625 23.3984375 C14.30282225 22.08908917 14.30282225 22.08908917 14.9140625 19.0390625 C15.2852238 15.84030344 15.2852238 15.84030344 13.125 13 C8.70484134 8.34655519 3.532672 4.90452572 -2.5 2.75 C-6.38488753 3.02749197 -6.8632493 3.5270572 -9.734375 5.875 Z " fill="#FFFFFF" transform="translate(137,95)"/>
<path d="M0 0 C5.00720387 1.7882871 8.50392985 4.81070153 12.5 8.25 C13.51900391 9.06984375 13.51900391 9.06984375 14.55859375 9.90625 C17.70091967 12.46714763 19.99090181 14.3925978 21.5 18.25 C21.28291598 24.43689445 21.28291598 24.43689445 18.98046875 26.828125 C15.468541 28.84126154 11.86213719 29.54290775 7.9375 30.4375 C-0.21114274 32.40299381 -7.68115249 35.18996997 -15.26782227 38.74682617 C-22.12892711 41.86956087 -22.12892711 41.86956087 -26.5 40.25 C-24.6425241 37.42663663 -22.78031109 34.6322424 -20.78125 31.90625 C-17.0698947 26.8109995 -14.39518148 22.26998824 -12.5 16.25 C-13.58539063 16.394375 -14.67078125 16.53875 -15.7890625 16.6875 C-17.2343491 16.87519956 -18.67966307 17.06268838 -20.125 17.25 C-20.83785156 17.34539063 -21.55070313 17.44078125 -22.28515625 17.5390625 C-26.38821609 18.06606101 -30.35245742 18.35466984 -34.5 18.25 C-32.61833565 13.97349011 -29.78426692 8.39213346 -25.5 6.25 C-23.48014159 6.14567446 -21.45896713 6.06620009 -19.4375 6 C-14.75811131 5.70076677 -11.6064659 5.11427574 -7.625 2.625 C-4.6655941 0.78478761 -3.6048624 0.25749017 0 0 Z " fill="#B50000" transform="translate(164.5,42.75)"/>
<path d="M0 0 C-0.99 2.97 -1.98 5.94 -3 9 C-2.03578125 8.7834375 -1.0715625 8.566875 -0.078125 8.34375 C1.18515625 8.0653125 2.4484375 7.786875 3.75 7.5 C5.00296875 7.2215625 6.2559375 6.943125 7.546875 6.65625 C11 6 11 6 15 6 C13.69806621 11.7863724 10.50534069 16.21695842 6 20 C3.26953125 20.73046875 3.26953125 20.73046875 1 21 C-1.475 17.04 -1.475 17.04 -4 13 C-4.66 14.32 -5.32 15.64 -6 17 C-6.66 17 -7.32 17 -8 17 C-8.433125 18.2065625 -8.433125 18.2065625 -8.875 19.4375 C-10 22 -10 22 -12 23 C-12.66 19.37 -13.32 15.74 -14 12 C-14.80630859 12.176521 -15.61261719 12.35304199 -16.44335938 12.53491211 C-19.46944448 13.19561895 -22.49620397 13.85312173 -25.5234375 14.50854492 C-27.46406985 14.92970241 -29.40391851 15.35446589 -31.34375 15.77929688 C-34.8910161 16.54602366 -38.44207905 17.28447911 -42 18 C-42.83015625 18.17160645 -43.6603125 18.34321289 -44.515625 18.52001953 C-47.73361137 19.07575731 -49.73549701 19.10669028 -52.7890625 17.875 C-55.26444596 15.77573488 -56.73520345 13.79681036 -58.375 11 C-58.89835937 10.13375 -59.42171875 9.2675 -59.9609375 8.375 C-61 6 -61 6 -60 3 C-59.37472412 2.98541748 -58.74944824 2.97083496 -58.10522461 2.95581055 C-42.96689712 2.56884038 -28.01669024 1.57556295 -12.97045898 -0.0715332 C-11.71305908 -0.20519287 -10.45565918 -0.33885254 -9.16015625 -0.4765625 C-7.48385132 -0.663396 -7.48385132 -0.663396 -5.77368164 -0.85400391 C-3 -1 -3 -1 0 0 Z M0 13 C1.32 14.32 2.64 15.64 4 17 C5.32 15.35 6.64 13.7 8 12 C4.59745511 10.7848054 3.06748874 11.13759612 0 13 Z " fill="#FE0000" transform="translate(102,108)"/>
<path d="M0 0 C-3 2 -3 2 -5 2.625 C-8.29437232 4.88988097 -9.09445033 8.27652275 -10 12 C-10.50034913 15.66120852 -10.80333109 19.31076247 -11 23 C-14.3 23 -17.6 23 -21 23 C-21.30756866 17.15619553 -21.0261402 13.20117846 -18 8 C-12.24840444 1.88206078 -8.40300028 -0.19097728 0 0 Z " fill="#F20000" transform="translate(121,22)"/>
<path d="M0 0 C-1.30193379 5.7863724 -4.49465931 10.21695842 -9 14 C-10.65 14.33 -12.3 14.66 -14 15 C-15.98 11.7 -17.96 8.4 -20 5 C-17.26850337 2.26850337 -14.88759316 2.14942146 -11.125 1.375 C-9.89007813 1.11460938 -8.65515625 0.85421875 -7.3828125 0.5859375 C-4 0 -4 0 0 0 Z M-15 7 C-13.68 8.32 -12.36 9.64 -11 11 C-9.68 9.35 -8.36 7.7 -7 6 C-10.40254489 4.7848054 -11.93251126 5.13759612 -15 7 Z " fill="#FFFFFF" transform="translate(117,114)"/>
<path d="M0 0 C3.46941546 0.45822468 6.67395049 0.89131683 10 2 C9.34 4.31 8.68 6.62 8 9 C6.65826597 8.07456291 5.32679841 7.13422595 4 6.1875 C3.2575 5.66542969 2.515 5.14335937 1.75 4.60546875 C1.1725 4.07566406 0.595 3.54585937 0 3 C0 2.01 0 1.02 0 0 Z " fill="#FD0000" transform="translate(51,194)"/>
</svg>
